<?xml version="1.0" encoding="UTF-8" ?>
<!DOCTYPE svg PUBLIC "-//W3C//DTD SVG 1.1//EN" "http://www.w3.org/Graphics/SVG/1.1/DTD/svg11.dtd">
<svg width="340pt" height="190pt" viewBox="0 0 340 190" version="1.1" xmlns="http://www.w3.org/2000/svg">
<g id="#58695499">
<path fill="#586954" opacity="0.60" d=" M 124.18 8.31 C 124.79 6.72 126.22 5.72 127.97 6.07 C 152.96 6.08 177.95 6.08 202.94 6.07 C 206.64 6.13 210.60 5.56 214.01 7.35 C 217.86 9.38 220.31 13.71 220.27 18.04 C 220.27 26.36 220.29 34.68 220.22 43.01 C 223.95 40.80 226.77 37.40 230.45 35.13 C 227.19 38.21 224.00 41.40 220.19 43.82 L 219.80 44.09 C 219.60 35.07 219.97 26.03 219.65 17.01 C 219.39 11.12 213.91 6.02 207.97 6.47 C 180.63 6.46 153.29 6.46 125.95 6.47 C 125.51 6.93 124.62 7.85 124.18 8.31 Z" />
<path fill="#586954" opacity="0.60" d=" M 246.00 22.38 C 249.79 19.74 255.66 23.50 254.96 28.01 C 254.95 58.67 254.94 89.33 254.97 119.98 C 254.83 122.89 255.73 126.39 253.17 128.52 C 254.11 126.11 254.56 123.54 254.48 120.95 C 254.33 89.96 254.56 58.96 254.37 27.97 C 254.81 24.15 250.07 20.50 246.65 22.64 C 240.79 26.07 236.57 31.66 230.64 34.99 C 235.65 30.67 240.51 26.10 246.00 22.38 Z" />
<path fill="#586954" opacity="0.60" d=" M 125.58 45.64 C 125.59 45.50 125.61 45.21 125.62 45.07 C 144.32 45.62 163.04 45.01 181.75 45.37 L 181.78 46.08 C 163.24 46.00 144.70 46.11 126.16 46.02 C 126.23 65.80 126.27 85.58 126.14 105.36 L 125.48 105.36 C 125.58 85.46 125.36 65.55 125.58 45.64 Z" />
<path fill="#586954" opacity="0.60" d=" M 240.32 124.70 C 240.72 125.05 241.51 125.74 241.91 126.09 L 241.02 126.33 L 240.21 125.61 L 240.32 124.70 Z" />
<path fill="#586954" opacity="0.60" d=" M 262.87 154.87 C 264.23 154.90 265.59 154.93 266.95 154.95 C 266.95 156.65 266.94 158.35 266.93 160.05 C 268.26 160.10 269.58 160.15 270.92 160.21 C 270.96 161.45 270.99 162.70 271.02 163.95 C 269.68 163.98 268.34 164.01 267.00 164.04 C 267.01 167.41 267.03 170.79 266.94 174.16 C 265.53 170.86 266.21 167.19 266.28 163.71 C 267.52 163.48 268.73 163.15 269.91 162.74 C 271.40 160.62 267.47 161.16 266.31 160.40 C 266.20 158.93 266.34 157.37 265.64 156.02 C 262.68 153.83 263.62 158.94 263.12 160.65 C 261.92 160.90 260.71 161.14 259.51 161.38 C 260.44 160.48 261.57 159.91 262.88 159.68 C 262.88 158.07 262.87 156.47 262.87 154.87 Z" />
<path fill="#586954" opacity="0.60" d=" M 75.85 167.40 C 74.10 164.14 75.29 160.37 77.62 157.76 C 75.90 160.69 75.88 164.10 75.85 167.40 Z" />
<path fill="#586954" opacity="0.60" d=" M 169.32 164.28 C 168.92 162.55 169.58 161.80 171.31 162.05 C 170.95 163.06 170.29 163.81 169.32 164.28 Z" />
<path fill="#586954" opacity="0.60" d=" M 183.50 163.42 C 183.53 163.45 183.58 163.53 183.60 163.56 C 183.58 163.53 183.53 163.45 183.50 163.42 Z" />
<path fill="#586954" opacity="0.60" d=" M 239.65 163.43 C 239.66 163.45 239.69 163.49 239.70 163.51 C 239.69 163.49 239.66 163.45 239.65 163.43 Z" />
<path fill="#586954" opacity="0.60" d=" M 121.73 174.21 C 120.41 171.18 120.39 167.79 121.65 164.73 C 121.12 167.87 121.14 171.08 121.73 174.21 Z" />
<path fill="#586954" opacity="0.60" d=" M 227.08 167.47 C 227.60 166.52 228.12 165.56 228.65 164.62 C 228.47 165.21 228.11 166.40 227.93 167.00 C 231.19 166.95 234.44 166.92 237.69 167.00 C 234.27 168.20 230.61 167.48 227.08 167.47 Z" />
<path fill="#586954" opacity="0.60" d=" M 71.33 166.08 C 72.16 166.88 72.39 167.79 72.02 168.81 C 70.47 168.37 70.24 167.46 71.33 166.08 Z" />
<path fill="#586954" opacity="0.60" d=" M 245.32 166.91 L 245.80 166.92 C 249.23 166.99 252.67 166.97 256.10 166.79 L 256.63 166.77 C 253.13 168.44 248.91 168.12 245.32 166.91 Z" />
<path fill="#586954" opacity="0.60" d=" M 73.40 172.50 C 73.41 172.52 73.44 172.57 73.46 172.59 C 73.44 172.57 73.41 172.52 73.40 172.50 Z" />
<path fill="#586954" opacity="0.60" d=" M 254.14 175.09 C 253.95 173.52 254.65 172.84 256.23 173.06 C 256.03 174.25 255.33 174.93 254.14 175.09 Z" />
<path fill="#586954" opacity="0.60" d=" M 136.85 176.01 C 137.12 174.95 137.72 174.15 138.66 173.59 C 139.18 175.29 138.57 176.10 136.85 176.01 Z" />
<path fill="#586954" opacity="0.60" d=" M 183.96 174.19 L 184.78 174.10 L 185.30 174.87 C 185.00 175.10 184.41 175.55 184.11 175.77 C 184.07 175.38 184.00 174.59 183.96 174.19 Z" />
<path fill="#586954" opacity="0.60" d=" M 267.92 175.26 C 268.95 173.85 271.90 175.31 270.79 176.95 C 269.77 176.51 268.61 176.18 267.92 175.26 Z" />
<path fill="#586954" opacity="0.60" d=" M 228.72 178.47 C 231.93 178.78 235.18 178.48 238.25 177.46 C 235.52 179.61 231.88 179.48 228.72 178.47 Z" />
<path fill="#586954" opacity="0.60" d=" M 80.76 178.34 C 84.22 178.71 87.72 178.65 91.17 178.26 C 87.86 179.54 84.10 179.49 80.76 178.34 Z" />
<path fill="#586954" opacity="0.60" d=" M 105.86 178.34 C 108.61 178.62 111.39 178.61 114.15 178.33 C 111.48 179.47 108.56 179.24 105.86 178.34 Z" />
<path fill="#586954" opacity="0.60" d=" M 125.78 178.17 C 128.61 178.51 131.47 178.60 134.32 178.40 C 131.56 179.42 128.44 179.53 125.78 178.17 Z" />
<path fill="#586954" opacity="0.60" d=" M 172.90 178.28 C 175.67 178.59 178.47 178.62 181.25 178.39 C 178.55 179.41 175.55 179.46 172.90 178.28 Z" />
<path fill="#586954" opacity="0.60" d=" M 246.83 178.24 C 249.59 178.57 252.38 178.65 255.16 178.47 C 252.44 179.39 249.45 179.50 246.83 178.24 Z" />
<path fill="#586954" opacity="0.60" d=" M 266.20 178.14 C 267.84 177.85 269.51 177.77 271.17 177.86 C 270.60 179.47 266.68 179.83 266.20 178.14 Z" />
</g>
<g id="#e94135ff">
<path fill="#e94135" opacity="1.00" d=" M 124.18 8.31 C 124.62 7.85 125.51 6.93 125.95 6.47 C 125.44 19.33 126.07 32.21 125.62 45.07 C 125.61 45.21 125.59 45.50 125.58 45.64 C 112.81 45.61 100.03 45.57 87.26 45.65 C 91.52 40.77 96.23 36.36 100.90 31.89 C 104.67 26.99 109.96 23.58 113.70 18.66 C 117.18 15.20 121.04 12.12 124.18 8.31 Z" />
</g>
<g id="#ffba00ff">
<path fill="#ffba00" opacity="1.00" d=" M 125.95 6.47 C 153.29 6.46 180.63 6.46 207.97 6.47 C 213.91 6.02 219.39 11.12 219.65 17.01 C 219.97 26.03 219.60 35.07 219.80 44.09 C 206.97 54.37 194.29 64.88 181.83 75.61 C 181.73 65.76 181.82 55.92 181.78 46.08 L 181.75 45.37 C 163.04 45.01 144.32 45.62 125.62 45.07 C 126.07 32.21 125.44 19.33 125.95 6.47 Z" />
</g>
<g id="#00ac47ff">
<path fill="#00ac47" opacity="1.00" d=" M 246.65 22.64 C 250.07 20.50 254.81 24.15 254.37 27.97 C 254.56 58.96 254.33 89.96 254.48 120.95 C 254.56 123.54 254.11 126.11 253.17 128.52 C 249.58 132.11 244.61 129.28 241.91 126.09 C 241.51 125.74 240.72 125.05 240.32 124.70 C 233.42 119.56 226.94 113.80 220.21 108.42 C 219.83 117.48 220.63 126.59 219.77 135.61 C 218.06 140.65 213.59 144.83 207.98 144.47 C 180.59 144.55 153.19 144.43 125.79 144.53 C 125.97 131.47 125.31 118.39 126.14 105.36 C 144.71 105.25 163.28 105.43 181.85 105.27 C 181.73 95.46 181.77 85.65 181.82 75.85 C 194.66 86.36 206.96 97.55 219.85 107.99 C 220.61 86.62 219.92 65.21 220.19 43.82 C 224.00 41.40 227.19 38.21 230.45 35.13 L 230.64 34.99 C 236.57 31.66 240.79 26.07 246.65 22.64 Z" />
</g>
<g id="#00832dff">
<path fill="#00832d" opacity="1.00" d=" M 219.80 44.09 L 220.19 43.82 C 219.92 65.21 220.61 86.62 219.85 107.99 C 206.96 97.55 194.66 86.36 181.82 75.85 L 181.83 75.61 C 194.29 64.88 206.97 54.37 219.80 44.09 Z" />
</g>
<g id="#2684fdff">
<path fill="#2684fd" opacity="1.00" d=" M 86.74 45.65 L 87.26 45.65 C 100.03 45.57 112.81 45.61 125.58 45.64 C 125.36 65.55 125.58 85.46 125.48 105.36 C 112.57 105.42 99.65 105.36 86.74 105.39 C 86.75 85.48 86.75 65.57 86.74 45.65 Z" />
</g>
<g id="#0066daff">
<path fill="#0066da" opacity="1.00" d=" M 86.74 105.39 C 99.65 105.36 112.57 105.42 125.48 105.36 L 126.14 105.36 C 125.31 118.39 125.97 131.47 125.79 144.53 C 116.21 144.47 106.60 144.82 97.03 144.40 C 93.08 144.35 90.22 141.38 87.91 138.55 C 86.97 136.48 86.64 134.20 86.71 131.94 C 86.76 123.09 86.72 114.24 86.74 105.39 Z" />
</g>
<g id="#5e6065ff">
<path fill="#5e6065" opacity="1.00" d=" M 207.98 144.47 C 213.59 144.83 218.06 140.65 219.77 135.61 C 218.99 139.67 215.89 143.25 211.89 144.38 C 208.64 145.06 205.29 144.75 202.00 144.80 C 169.32 144.79 136.64 144.79 103.96 144.80 C 100.67 144.74 97.30 145.10 94.10 144.18 C 91.34 143.27 89.50 140.84 87.91 138.55 C 90.22 141.38 93.08 144.35 97.03 144.40 C 106.60 144.82 116.21 144.47 125.79 144.53 C 153.19 144.43 180.59 144.55 207.98 144.47 Z" />
<path fill="#5e6065" opacity="1.00" d=" M 76.00 153.06 C 81.49 148.01 90.95 148.13 96.03 153.74 C 95.00 154.68 93.98 155.63 92.96 156.57 C 90.54 155.10 87.90 153.47 84.93 153.81 C 82.04 153.99 79.60 155.78 77.62 157.76 C 75.29 160.37 74.10 164.14 75.85 167.40 C 77.75 172.10 82.74 175.73 87.94 174.40 C 91.66 173.85 94.22 170.76 95.07 167.26 C 91.92 167.15 88.76 167.16 85.61 167.16 C 85.60 165.69 85.59 164.22 85.60 162.75 C 90.17 162.71 94.75 162.73 99.32 162.73 C 100.20 169.00 97.42 175.96 91.17 178.26 C 87.72 178.65 84.22 178.71 80.76 178.34 C 77.86 177.13 75.25 175.19 73.46 172.59 C 73.44 172.57 73.41 172.52 73.40 172.50 C 72.98 171.80 72.15 170.40 71.74 169.70 L 72.02 168.81 C 72.39 167.79 72.16 166.88 71.33 166.08 C 70.12 161.37 72.28 156.11 76.00 153.06 Z" />
<path fill="#5e6065" opacity="1.00" d=" M 161.60 150.53 C 163.16 150.51 164.72 150.50 166.29 150.51 C 166.30 159.82 166.14 169.14 166.29 178.45 C 164.74 178.45 163.19 178.43 161.64 178.41 C 161.77 169.12 161.83 159.82 161.60 150.53 Z" />
<path fill="#5e6065" opacity="1.00" d=" M 196.65 152.13 C 198.08 152.71 199.52 153.31 200.87 154.09 C 202.90 158.18 205.79 161.91 207.09 166.33 C 207.07 168.71 210.08 168.74 209.95 166.31 C 211.14 161.81 214.31 158.16 216.12 153.90 C 217.49 153.31 218.88 152.79 220.27 152.26 C 220.71 160.96 220.03 169.68 220.69 178.37 L 220.70 178.56 C 219.56 178.63 218.42 178.70 217.28 178.77 L 217.32 178.14 C 217.73 171.81 217.65 165.46 217.64 159.12 C 217.35 159.55 217.06 159.99 216.77 160.43 C 214.47 163.89 212.82 167.74 210.55 171.22 C 209.15 171.40 207.73 171.33 206.34 171.08 C 204.03 167.73 202.81 163.67 199.93 160.70 C 199.87 160.23 199.80 159.75 199.74 159.28 C 198.93 165.67 198.91 172.18 199.64 178.59 C 198.48 178.55 197.31 178.51 196.16 178.47 C 197.11 169.72 196.29 160.91 196.65 152.13 Z" />
<path fill="#5e6065" opacity="1.00" d=" M 263.12 160.65 C 263.62 158.94 262.68 153.83 265.64 156.02 C 266.34 157.37 266.20 158.93 266.31 160.40 C 267.47 161.16 271.40 160.62 269.91 162.74 C 268.73 163.15 267.52 163.48 266.28 163.71 C 266.21 167.19 265.53 170.86 266.94 174.16 C 267.19 174.44 267.67 174.99 267.92 175.26 C 268.61 176.18 269.77 176.51 270.79 176.95 L 271.17 177.86 C 269.51 177.77 267.84 177.85 266.20 178.14 L 264.95 178.34 C 261.54 174.32 263.33 168.81 262.90 164.04 C 260.93 164.15 259.62 163.39 259.51 161.38 C 260.71 161.14 261.92 160.90 263.12 160.65 Z" />
<path fill="#5e6065" opacity="1.00" d=" M 102.38 163.48 C 105.85 158.61 113.97 158.57 117.53 163.40 C 121.33 168.07 119.52 175.69 114.15 178.33 C 111.39 178.61 108.61 178.62 105.86 178.34 C 100.44 175.74 98.61 168.21 102.38 163.48 M 104.67 169.00 C 103.85 173.48 109.66 177.30 113.22 174.15 C 117.67 170.65 114.63 162.79 108.88 163.31 C 106.80 164.55 104.39 166.23 104.67 169.00 Z" />
<path fill="#5e6065" opacity="1.00" d=" M 121.65 164.73 C 124.11 160.43 129.84 158.54 134.33 160.73 C 139.13 162.57 141.51 169.36 138.66 173.59 C 137.72 174.15 137.12 174.95 136.85 176.01 C 136.55 177.24 135.27 177.77 134.32 178.40 C 131.47 178.60 128.61 178.51 125.78 178.17 C 124.20 177.11 122.78 175.80 121.73 174.21 C 121.14 171.08 121.12 167.87 121.65 164.73 M 128.08 164.05 C 123.30 166.11 124.09 173.89 129.04 175.19 C 133.06 176.29 136.69 171.85 135.49 168.05 C 135.01 164.75 131.14 162.46 128.08 164.05 Z" />
<path fill="#5e6065" opacity="1.00" d=" M 141.76 165.20 C 144.11 160.83 149.91 158.01 154.41 161.02 C 155.95 160.24 157.67 160.34 159.33 160.51 C 159.18 166.34 159.35 172.17 159.26 178.00 C 159.32 181.61 157.59 185.72 153.92 186.94 C 149.84 188.61 145.06 187.04 142.55 183.49 C 143.66 182.53 144.74 181.55 145.82 180.56 C 146.65 181.45 147.48 182.33 148.32 183.22 C 149.36 184.66 151.72 184.61 152.73 183.16 C 153.11 182.68 153.86 181.71 154.24 181.23 C 154.83 179.93 155.34 178.59 155.86 177.26 C 152.65 178.43 149.23 178.93 145.87 178.17 C 145.01 177.60 144.40 176.85 144.01 175.93 C 143.76 174.71 143.08 173.97 141.96 173.71 L 142.01 172.68 C 142.15 170.55 142.17 168.41 141.89 166.29 L 141.76 165.20 M 148.14 164.14 C 144.19 166.17 144.15 172.87 148.22 174.78 C 151.82 176.86 156.33 173.11 155.52 169.19 C 156.09 165.29 151.54 162.18 148.14 164.14 Z" />
<path fill="#5e6065" opacity="1.00" d=" M 171.31 162.05 C 174.36 158.39 181.09 159.31 183.50 163.42 C 183.53 163.45 183.58 163.53 183.60 163.56 C 184.27 164.74 184.89 165.94 185.48 167.17 C 181.26 169.08 176.85 170.56 172.75 172.72 C 175.26 176.07 179.71 175.09 182.12 172.24 C 182.58 172.73 183.50 173.70 183.96 174.19 C 184.00 174.59 184.07 175.38 184.11 175.77 C 183.39 176.86 182.30 177.64 181.25 178.39 C 178.47 178.62 175.67 178.59 172.90 178.28 C 167.98 175.85 165.94 168.55 169.32 164.28 C 170.29 163.81 170.95 163.06 171.31 162.05 M 171.57 169.16 C 174.65 168.36 177.49 166.90 180.46 165.79 C 180.11 165.31 179.42 164.36 179.07 163.89 C 178.30 163.75 176.77 163.46 176.01 163.32 C 173.51 164.37 171.92 166.46 171.57 169.16 Z" />
<path fill="#5e6065" opacity="1.00" d=" M 226.26 162.27 C 229.80 158.46 236.84 158.99 239.65 163.43 C 239.66 163.45 239.69 163.49 239.70 163.51 C 240.88 165.57 240.92 167.99 241.23 170.27 C 236.53 170.35 231.84 170.22 227.15 170.37 C 227.84 172.68 229.19 175.36 231.92 175.55 C 234.46 176.20 236.26 173.98 237.91 172.47 C 238.70 172.87 240.28 173.66 241.07 174.05 C 240.14 175.20 239.25 176.38 238.25 177.46 C 235.18 178.48 231.93 178.78 228.72 178.47 C 222.90 175.48 221.88 166.88 226.26 162.27 M 228.65 164.62 C 228.12 165.56 227.60 166.52 227.08 167.47 C 230.61 167.48 234.27 168.20 237.69 167.00 C 236.20 163.34 231.74 162.21 228.65 164.62 Z" />
<path fill="#5e6065" opacity="1.00" d=" M 244.54 162.45 C 247.79 158.82 254.28 158.75 257.43 162.53 C 259.30 164.63 259.47 167.57 259.79 170.22 C 255.02 170.52 250.22 169.88 245.49 170.62 C 246.59 174.33 250.38 176.69 254.14 175.09 C 255.33 174.93 256.03 174.25 256.23 173.06 L 256.42 172.32 C 257.20 172.78 258.77 173.70 259.55 174.16 C 258.28 175.78 256.93 177.39 255.16 178.47 C 252.38 178.65 249.59 178.57 246.83 178.24 C 241.46 175.10 240.52 167.00 244.54 162.45 M 245.80 166.92 L 245.32 166.91 C 248.91 168.12 253.13 168.44 256.63 166.77 L 256.10 166.79 C 254.90 164.65 252.74 162.54 250.06 163.30 C 247.95 163.40 246.95 165.48 245.80 166.92 Z" />
</g>
</svg>
