<?xml version="1.0" encoding="UTF-8" ?>
<!DOCTYPE svg PUBLIC "-//W3C//DTD SVG 1.1//EN" "http://www.w3.org/Graphics/SVG/1.1/DTD/svg11.dtd">
<svg width="1280pt" height="720pt" viewBox="0 0 1280 720" version="1.1" xmlns="http://www.w3.org/2000/svg">
<g id="#7a82eaff">
<path fill="#7a82ea" opacity="1.00" d=" M 620.56 46.53 C 632.50 39.00 647.05 35.79 661.06 37.51 C 675.75 39.21 689.67 46.46 699.62 57.38 C 710.01 68.62 716.07 83.72 716.33 99.03 C 716.74 114.14 711.54 129.32 701.90 140.97 C 690.42 155.14 672.53 163.76 654.29 163.92 C 654.26 157.27 654.67 150.59 654.16 143.96 C 653.21 136.67 648.00 129.92 640.82 127.90 C 636.39 126.81 631.79 127.25 627.29 127.29 C 617.16 127.53 607.02 127.08 596.91 127.56 C 589.91 113.24 588.99 96.18 593.80 81.04 C 598.27 66.85 607.94 54.39 620.56 46.53 Z" />
<path fill="#7a82ea" opacity="1.00" d=" M 654.29 182.01 C 684.41 182.05 714.54 181.84 744.66 182.06 C 750.64 183.61 756.21 187.37 758.98 193.03 C 761.65 197.90 761.31 203.61 761.29 208.98 C 761.27 241.32 761.28 273.67 761.28 306.02 C 761.09 325.08 762.68 344.65 756.61 363.06 C 748.03 391.86 726.98 416.69 699.81 429.60 C 677.26 440.52 650.81 442.99 626.60 436.57 C 599.21 429.49 575.14 410.98 561.00 386.52 C 564.11 384.95 567.67 385.60 571.02 385.51 C 593.02 385.51 615.02 385.58 637.02 385.48 C 647.03 385.34 654.63 375.52 654.43 365.95 C 654.27 304.64 654.55 243.32 654.29 182.01 Z" />
</g>
<g id="#4e56c3ff">
<path fill="#4e56c3" opacity="1.00" d=" M 783.51 74.76 C 796.11 71.58 810.00 73.96 820.77 81.24 C 832.14 88.76 839.91 101.41 841.51 114.94 C 843.24 128.23 839.07 142.15 830.24 152.24 C 821.54 162.38 808.35 168.51 794.97 168.44 C 781.32 168.59 767.84 162.29 759.09 151.85 C 749.16 140.33 745.44 123.91 749.21 109.19 C 753.21 92.59 766.87 78.76 783.51 74.76 Z" />
<path fill="#4e56c3" opacity="1.00" d=" M 426.21 139.17 C 428.67 132.73 435.07 127.97 442.00 127.73 C 493.63 127.55 545.27 127.89 596.91 127.56 C 607.02 127.08 617.16 127.53 627.29 127.29 C 631.85 131.15 637.80 134.37 639.28 140.67 C 640.64 147.72 639.15 154.97 640.24 162.07 C 640.34 168.70 640.30 175.34 640.25 181.97 C 639.86 230.63 640.29 279.31 640.04 327.96 C 639.98 337.31 631.19 345.07 622.01 344.82 C 596.95 344.86 571.89 344.79 546.83 344.85 C 512.21 344.87 477.59 344.86 442.97 344.85 C 433.38 345.12 424.82 336.51 424.96 326.95 C 424.91 268.29 424.95 209.63 424.93 150.97 C 424.94 147.02 424.64 142.89 426.21 139.17 M 479.06 168.44 C 479.02 177.38 479.04 186.33 479.05 195.27 C 492.54 195.31 506.03 195.23 519.52 195.31 C 519.58 231.64 519.36 267.97 519.63 304.29 C 528.37 304.16 537.11 304.27 545.84 304.23 C 545.87 267.91 545.82 231.59 545.87 195.28 C 559.25 195.27 572.64 195.29 586.03 195.27 C 586.07 186.35 586.00 177.43 586.06 168.51 C 550.40 168.35 514.73 168.50 479.06 168.44 Z" />
<path fill="#4e56c3" opacity="1.00" d=" M 744.66 182.06 C 775.11 181.89 805.56 182.00 836.01 182.01 C 846.46 182.14 855.51 191.64 855.40 202.05 C 855.45 232.36 855.41 262.67 855.42 292.98 C 855.36 300.02 855.73 307.12 854.55 314.10 C 851.68 332.63 840.76 349.71 825.15 360.10 C 805.24 373.73 777.52 375.48 756.61 363.06 C 762.68 344.65 761.09 325.08 761.28 306.02 C 761.28 273.67 761.27 241.32 761.29 208.98 C 761.31 203.61 761.65 197.90 758.98 193.03 C 756.21 187.37 750.64 183.61 744.66 182.06 Z" />
<path fill="#4e56c3" opacity="1.00" d=" M 655.96 511.01 C 663.85 505.78 674.16 505.18 683.05 507.97 C 683.04 512.48 683.03 517.00 683.05 521.51 C 677.54 518.70 670.57 518.06 665.00 521.04 C 660.09 523.84 658.26 529.76 657.87 535.07 C 657.51 541.14 657.77 547.23 657.70 553.32 C 670.21 553.05 682.68 553.81 695.18 553.69 C 695.23 545.93 695.17 538.17 695.21 530.41 C 700.14 528.82 705.05 527.20 709.98 525.62 C 710.01 534.85 709.98 544.09 710.00 553.32 C 717.79 553.34 725.59 553.29 733.39 553.35 C 733.37 557.45 733.37 561.55 733.39 565.65 C 725.59 565.70 717.79 565.66 710.00 565.68 C 709.95 584.10 710.06 602.53 709.94 620.95 C 709.99 625.03 711.08 629.22 713.47 632.58 C 718.59 638.06 727.55 637.06 733.41 633.30 C 733.27 637.49 733.21 641.68 733.14 645.87 C 724.93 649.68 714.98 649.88 706.70 646.25 C 698.30 642.38 695.06 632.58 694.90 623.95 C 694.74 604.64 694.88 585.33 694.83 566.02 C 682.44 566.17 670.09 565.40 657.70 565.68 C 657.68 592.60 657.71 619.51 657.68 646.42 C 652.72 646.42 647.76 646.42 642.79 646.42 C 642.78 619.62 642.80 592.82 642.78 566.02 C 637.51 566.02 632.23 566.02 626.96 566.02 C 626.95 561.90 626.95 557.79 626.96 553.69 C 632.24 553.67 637.51 553.69 642.79 553.68 C 642.96 546.41 642.42 539.12 643.08 531.88 C 644.30 523.58 648.84 515.60 655.96 511.01 Z" />
<path fill="#4e56c3" opacity="1.00" d=" M 192.22 511.09 C 198.29 509.12 204.81 514.77 203.65 521.06 C 203.03 528.13 193.84 532.19 188.21 527.83 C 182.24 523.28 184.95 512.61 192.22 511.09 Z" />
<path fill="#4e56c3" opacity="1.00" d=" M 28.67 515.90 C 35.34 515.89 42.02 515.88 48.70 515.90 C 61.82 545.97 74.96 576.04 88.10 606.10 C 90.56 611.58 92.82 617.16 94.50 622.93 C 100.41 605.75 108.65 589.52 115.83 572.87 C 124.30 553.88 132.81 534.91 141.26 515.91 C 147.61 515.88 153.96 515.89 160.32 515.90 C 160.15 559.53 160.01 603.16 159.83 646.80 C 154.79 646.80 149.75 646.80 144.71 646.80 C 144.69 616.87 144.71 586.94 144.70 557.02 C 144.66 549.59 144.98 542.17 145.71 534.78 C 143.68 543.06 139.85 550.71 136.52 558.52 C 123.69 587.95 110.88 617.38 98.03 646.80 C 95.54 646.81 93.04 646.80 90.54 646.77 C 76.04 613.79 61.43 580.87 46.89 547.91 C 44.94 543.41 43.76 538.63 42.54 533.89 C 43.81 556.58 43.16 579.31 43.32 602.02 C 43.31 616.95 43.33 631.87 43.31 646.80 C 38.43 646.80 33.55 646.80 28.68 646.80 C 28.64 603.17 28.67 559.53 28.67 515.90 Z" />
<path fill="#4e56c3" opacity="1.00" d=" M 783.81 515.90 C 813.80 515.89 843.79 515.89 873.78 515.90 C 873.78 520.50 873.78 525.10 873.78 529.71 C 861.32 529.72 848.85 529.73 836.39 529.70 C 836.31 568.73 836.39 607.77 836.35 646.80 C 831.31 646.80 826.26 646.80 821.23 646.80 C 821.20 607.77 821.23 568.75 821.21 529.72 C 808.74 529.71 796.28 529.72 783.82 529.72 C 783.80 525.11 783.80 520.50 783.81 515.90 Z" />
<path fill="#4e56c3" opacity="1.00" d=" M 239.85 558.85 C 254.04 549.30 273.20 548.88 288.61 555.69 C 288.71 560.80 288.62 565.92 288.66 571.04 C 280.71 565.35 270.59 562.69 260.89 564.23 C 253.59 565.43 246.87 569.56 242.40 575.44 C 236.74 582.65 233.93 591.89 234.25 601.02 C 233.82 612.13 238.03 624.05 247.19 630.83 C 259.37 639.77 277.15 637.51 288.55 628.31 C 288.56 633.05 288.64 637.79 288.65 642.53 C 278.20 648.58 265.61 650.30 253.79 648.27 C 241.62 645.98 230.70 637.98 224.98 626.99 C 219.00 616.47 218.23 603.93 219.66 592.16 C 221.66 579.04 228.58 566.22 239.85 558.85 Z" />
<path fill="#4e56c3" opacity="1.00" d=" M 392.46 551.61 C 398.56 550.75 404.79 550.84 410.92 551.38 C 419.86 552.58 428.42 556.74 434.77 563.19 C 443.16 573.02 447.23 586.18 446.67 599.04 C 447.34 613.00 442.34 627.40 432.22 637.20 C 423.67 645.34 411.74 649.62 399.97 649.05 C 386.00 649.49 371.76 642.75 363.97 631.02 C 357.93 622.27 355.10 611.54 355.47 600.96 C 354.66 587.64 358.99 573.90 367.98 563.94 C 374.60 557.44 383.31 553.12 392.46 551.61 M 393.42 564.56 C 385.87 566.48 379.16 571.63 375.66 578.64 C 370.55 587.50 369.95 598.09 370.99 608.04 C 372.42 617.79 377.48 627.64 386.32 632.57 C 392.50 636.24 399.96 636.85 406.98 636.07 C 415.13 634.94 422.88 629.91 426.50 622.40 C 431.86 612.88 432.09 601.52 430.89 590.93 C 429.32 582.25 425.68 573.03 417.93 568.10 C 410.81 563.26 401.61 562.77 393.42 564.56 Z" />
<path fill="#4e56c3" opacity="1.00" d=" M 478.71 553.80 C 490.76 549.90 504.22 550.45 515.90 555.33 C 516.61 560.28 515.97 565.50 516.20 570.56 C 507.88 565.21 497.66 562.74 487.84 564.23 C 484.41 564.75 481.03 566.04 478.40 568.36 C 473.08 572.75 473.18 582.02 478.41 586.44 C 482.58 590.20 488.10 591.70 493.12 593.94 C 500.95 597.31 509.50 600.16 515.26 606.80 C 520.37 612.47 521.36 620.77 519.86 628.02 C 518.02 636.31 511.17 642.66 503.47 645.70 C 489.26 651.13 472.74 650.65 459.17 643.58 C 459.03 638.17 459.16 632.76 459.09 627.35 C 469.04 635.18 482.53 638.15 494.87 635.47 C 498.61 634.58 502.43 632.54 504.08 628.89 C 505.50 625.65 505.61 621.79 504.36 618.48 C 502.61 614.49 498.78 611.98 495.07 610.02 C 485.27 605.25 473.97 602.80 465.87 595.11 C 459.42 589.15 457.90 579.36 460.23 571.18 C 462.79 562.62 470.54 556.65 478.71 553.80 Z" />
<path fill="#4e56c3" opacity="1.00" d=" M 567.53 551.67 C 578.73 550.10 590.88 550.30 600.92 556.15 C 612.70 562.36 619.49 575.16 621.78 587.88 C 623.65 601.28 622.73 615.74 615.52 627.55 C 607.94 641.12 592.45 649.50 577.00 649.05 C 564.78 649.67 552.34 645.01 543.87 636.11 C 535.21 626.72 530.85 613.77 531.34 601.05 C 530.51 587.68 534.84 573.90 543.88 563.91 C 550.29 557.57 558.67 553.28 567.53 551.67 M 568.45 564.76 C 561.21 566.81 554.90 571.90 551.52 578.64 C 546.29 587.78 545.73 598.72 546.99 608.95 C 548.62 618.42 553.67 627.91 562.33 632.67 C 568.54 636.32 576.03 636.86 583.04 636.03 C 591.10 634.82 598.76 629.86 602.35 622.43 C 607.74 612.88 607.96 601.50 606.75 590.89 C 605.17 582.25 601.56 573.05 593.83 568.15 C 586.47 563.16 576.87 562.67 568.45 564.76 Z" />
<path fill="#4e56c3" opacity="1.00" d=" M 961.19 559.94 C 972.90 552.35 987.50 549.62 1001.23 551.79 C 1008.08 552.91 1014.82 556.23 1018.93 561.98 C 1023.96 568.86 1025.25 577.68 1025.26 586.01 C 1025.14 606.27 1025.03 626.53 1024.90 646.80 C 1019.97 646.80 1015.04 646.81 1010.12 646.79 C 1010.11 641.99 1010.10 637.19 1010.12 632.39 C 1005.67 640.50 997.72 646.69 988.57 648.43 C 980.38 649.82 971.45 649.24 964.27 644.71 C 956.67 640.40 952.16 631.65 952.21 623.02 C 952.06 615.77 953.68 608.10 958.60 602.54 C 964.25 596.00 972.87 593.04 981.18 591.72 C 990.95 590.28 1000.75 588.95 1010.53 587.54 C 1010.38 581.69 1009.76 575.48 1006.35 570.53 C 1003.61 566.42 998.75 564.15 993.92 563.82 C 982.04 562.93 970.09 567.38 961.23 575.24 C 961.22 570.14 961.29 565.04 961.19 559.94 M 992.01 602.03 C 985.06 602.78 977.83 603.93 971.98 608.03 C 964.06 614.71 965.41 629.53 974.96 634.12 C 986.02 639.73 1000.86 634.50 1006.50 623.56 C 1010.95 616.33 1010.10 607.63 1010.11 599.54 C 1004.07 600.34 998.04 601.19 992.01 602.03 Z" />
<path fill="#4e56c3" opacity="1.00" d=" M 1062.14 568.00 C 1069.16 554.26 1086.75 547.40 1101.19 552.88 C 1108.86 555.79 1114.81 562.48 1117.17 570.31 C 1120.26 563.74 1125.47 558.19 1131.92 554.85 C 1140.25 550.43 1150.34 550.09 1159.29 552.72 C 1166.38 554.83 1172.10 560.45 1174.81 567.27 C 1179.32 577.93 1178.34 589.74 1178.52 601.04 C 1178.58 616.29 1178.65 631.55 1178.71 646.80 C 1173.74 646.80 1168.77 646.80 1163.82 646.80 C 1163.83 628.88 1163.75 610.95 1163.86 593.03 C 1164.28 585.22 1162.82 577.12 1158.75 570.37 C 1151.91 561.27 1137.14 561.69 1129.48 569.50 C 1123.57 575.76 1120.37 584.41 1120.44 592.99 C 1120.44 610.93 1120.45 628.86 1120.44 646.80 C 1115.48 646.80 1110.52 646.79 1105.57 646.81 C 1105.53 630.20 1105.56 613.59 1105.56 596.98 C 1105.60 588.48 1105.82 579.30 1101.16 571.82 C 1094.61 561.45 1077.96 561.08 1070.00 570.00 C 1064.80 576.02 1062.16 584.09 1062.18 592.00 C 1062.20 610.27 1062.19 628.53 1062.18 646.80 C 1057.21 646.80 1052.25 646.80 1047.29 646.80 C 1047.28 615.64 1047.28 584.49 1047.29 553.33 C 1052.28 553.38 1057.27 553.19 1062.27 553.44 C 1062.09 558.29 1062.27 563.14 1062.14 568.00 Z" />
<path fill="#4e56c3" opacity="1.00" d=" M 1212.69 554.74 C 1225.40 549.63 1240.06 550.28 1252.68 555.37 C 1252.70 560.44 1252.70 565.51 1252.68 570.58 C 1243.66 564.74 1232.28 562.27 1221.77 564.75 C 1216.42 565.96 1211.55 570.25 1210.97 575.90 C 1210.21 581.04 1213.18 586.03 1217.59 588.54 C 1227.56 594.16 1239.36 596.38 1248.42 603.66 C 1259.65 612.09 1259.55 631.02 1248.94 639.91 C 1240.83 647.10 1229.56 649.18 1219.04 649.15 C 1210.90 649.27 1202.91 647.09 1195.59 643.66 C 1195.37 638.26 1195.54 632.85 1195.49 627.46 C 1203.07 633.18 1212.48 636.49 1222.01 636.42 C 1227.13 636.35 1232.62 635.97 1237.02 633.04 C 1242.92 629.07 1243.19 619.62 1238.25 614.76 C 1233.03 609.60 1225.71 607.73 1219.16 604.89 C 1212.70 602.09 1205.89 599.28 1201.10 593.91 C 1195.73 587.89 1194.63 579.00 1196.64 571.41 C 1198.83 563.58 1205.39 557.80 1212.69 554.74 Z" />
<path fill="#4e56c3" opacity="1.00" d=" M 333.14 555.13 C 339.18 551.19 347.01 550.84 353.76 553.04 C 353.83 558.17 353.88 563.30 354.02 568.43 C 347.28 563.96 337.76 564.44 331.44 569.45 C 324.22 575.76 321.13 585.73 320.57 595.05 C 320.60 612.30 320.60 629.55 320.58 646.80 C 315.46 646.80 310.33 646.80 305.20 646.80 C 305.18 615.65 305.22 584.50 305.19 553.35 C 310.16 553.30 315.13 553.32 320.10 553.33 C 320.15 559.64 320.00 565.96 320.22 572.27 C 322.33 565.27 327.07 559.17 333.14 555.13 Z" />
<path fill="#4e56c3" opacity="1.00" d=" M 877.37 561.25 C 891.73 548.49 916.37 547.71 930.07 561.88 C 936.37 568.74 940.05 577.77 941.45 586.92 C 942.33 592.51 941.79 598.18 941.91 603.81 C 920.12 603.84 898.33 603.80 876.54 603.83 C 876.30 612.32 879.06 620.93 884.58 627.43 C 890.18 633.58 898.68 636.79 906.95 636.31 C 917.28 636.24 927.45 632.47 935.46 625.97 C 935.43 630.66 935.44 635.35 935.45 640.04 C 923.45 648.22 908.33 650.44 894.15 648.51 C 884.07 646.70 874.36 640.94 869.07 632.00 C 863.24 622.81 860.56 611.79 861.13 600.95 C 860.63 586.25 866.31 571.14 877.37 561.25 M 886.20 571.21 C 880.85 576.65 877.60 583.94 876.66 591.48 C 893.34 591.51 910.01 591.49 926.69 591.49 C 927.12 581.71 923.02 570.67 913.77 566.17 C 904.76 561.88 893.16 564.10 886.20 571.21 Z" />
<path fill="#4e56c3" opacity="1.00" d=" M 186.24 553.33 C 191.20 553.31 196.15 553.34 201.11 553.31 C 201.19 584.47 201.13 615.64 201.14 646.80 C 196.17 646.80 191.21 646.80 186.24 646.80 C 186.23 615.64 186.24 584.49 186.24 553.33 Z" />
</g>
<g id="#595fabff">
<path fill="#595fab" opacity="1.00" d=" M 627.29 127.29 C 631.79 127.25 636.39 126.81 640.82 127.90 C 648.00 129.92 653.21 136.67 654.16 143.96 C 654.67 150.59 654.26 157.27 654.29 163.92 C 649.58 163.87 644.91 163.39 640.28 162.57 L 640.24 162.07 C 639.15 154.97 640.64 147.72 639.28 140.67 C 637.80 134.37 631.85 131.15 627.29 127.29 Z" />
<path fill="#595fab" opacity="1.00" d=" M 640.25 181.97 C 644.93 181.98 649.61 181.93 654.29 182.01 C 654.55 243.32 654.27 304.64 654.43 365.95 C 654.63 375.52 647.03 385.34 637.02 385.48 C 615.02 385.58 593.02 385.51 571.02 385.51 C 567.67 385.60 564.11 384.95 561.00 386.52 C 553.15 373.95 548.65 359.49 546.83 344.85 C 571.89 344.79 596.95 344.86 622.01 344.82 C 631.19 345.07 639.98 337.31 640.04 327.96 C 640.29 279.31 639.86 230.63 640.25 181.97 Z" />
</g>
<g id="#ffffffff">
<path fill="#ffffff" opacity="1.00" d=" M 479.06 168.44 C 514.73 168.50 550.40 168.35 586.06 168.51 C 586.00 177.43 586.07 186.35 586.03 195.27 C 572.64 195.29 559.25 195.27 545.87 195.28 C 545.82 231.59 545.87 267.91 545.84 304.23 C 537.11 304.27 528.37 304.16 519.63 304.29 C 519.36 267.97 519.58 231.64 519.52 195.31 C 506.03 195.23 492.54 195.31 479.05 195.27 C 479.04 186.33 479.02 177.38 479.06 168.44 Z" />
</g>
</svg>
