<?xml version="1.0" encoding="UTF-8" ?>
<!DOCTYPE svg PUBLIC "-//W3C//DTD SVG 1.1//EN" "http://www.w3.org/Graphics/SVG/1.1/DTD/svg11.dtd">
<svg width="875pt" height="583pt" viewBox="0 0 875 583" version="1.1" xmlns="http://www.w3.org/2000/svg">
<g id="#ffffffff">
<path fill="#ffffff" opacity="1.00" d=" M 347.62 173.92 C 347.46 170.07 351.69 168.16 355.01 168.46 C 386.35 168.49 417.68 168.52 449.02 168.48 C 455.61 168.70 462.49 170.26 467.68 174.54 C 470.93 176.88 472.83 180.48 474.96 183.77 C 477.15 190.62 476.78 197.88 477.07 204.97 C 476.49 211.64 477.55 218.32 476.90 224.99 C 476.54 238.77 477.14 252.59 476.40 266.36 C 473.96 266.93 471.50 267.51 469.00 267.52 C 439.67 267.49 410.35 267.50 381.03 267.53 C 375.74 267.74 370.57 266.05 365.27 266.66 C 357.04 263.94 351.32 256.65 348.55 248.68 C 348.26 244.79 347.65 240.93 347.62 237.03 C 347.69 215.99 347.53 194.95 347.62 173.92 Z" />
</g>
<g id="#d5f8ffff">
</g>
<g id="#6db3daff">
<path fill="#6db3da" opacity="1.00" d=" M 410.80 81.03 C 417.70 79.00 424.97 79.53 432.04 78.68 C 452.76 78.12 473.98 81.01 492.87 89.91 C 504.89 93.95 515.09 101.63 525.39 108.76 C 531.89 115.02 539.68 120.18 544.45 128.02 C 543.81 127.97 542.52 127.88 541.88 127.83 C 536.44 123.77 532.55 118.02 527.17 113.93 C 520.41 110.16 515.48 103.78 508.42 100.48 C 503.70 98.33 499.54 95.07 494.60 93.41 C 489.95 91.87 485.59 89.49 480.80 88.39 C 475.42 87.28 470.50 84.62 465.05 83.81 C 450.30 80.35 434.97 80.62 419.96 81.85 C 416.13 82.11 412.63 83.82 408.91 84.56 C 403.14 85.73 397.23 86.55 391.79 88.90 C 378.47 94.42 365.33 100.84 353.95 109.79 C 349.22 112.63 345.63 116.86 341.74 120.68 C 336.63 125.88 331.15 130.79 326.97 136.81 C 324.60 141.74 319.95 145.06 318.09 150.26 C 315.63 154.38 313.72 158.75 312.20 163.30 C 311.76 165.45 309.62 166.04 307.80 166.61 C 311.86 155.25 318.19 144.91 325.11 135.09 C 329.47 129.80 333.34 124.09 338.54 119.55 C 344.46 113.00 351.64 107.85 358.85 102.86 C 368.47 95.42 379.83 90.96 390.96 86.35 C 397.35 83.81 404.19 82.81 410.80 81.03 Z" />
</g>
<g id="#4cb2feff">
<path fill="#4cb2fe" opacity="1.00" d=" M 419.96 81.85 C 434.97 80.62 450.30 80.35 465.05 83.81 C 470.50 84.62 475.42 87.28 480.80 88.39 C 485.59 89.49 489.95 91.87 494.60 93.41 C 499.54 95.07 503.70 98.33 508.42 100.48 C 515.48 103.78 520.41 110.16 527.17 113.93 C 532.55 118.02 536.44 123.77 541.88 127.83 C 543.10 129.79 544.13 131.86 545.39 133.79 C 543.81 134.92 542.23 136.04 540.65 137.16 C 542.28 138.24 543.90 139.35 545.49 140.51 C 542.55 140.90 539.84 139.62 537.20 138.53 C 534.95 139.55 532.52 140.13 530.06 140.32 C 523.37 140.91 516.74 142.42 510.00 142.09 C 504.30 141.86 498.71 140.62 493.05 140.14 C 487.64 140.06 482.36 141.52 476.98 141.91 C 473.60 142.14 470.34 140.95 466.97 140.95 C 464.11 141.34 461.92 143.76 458.99 143.96 C 454.78 144.08 449.70 144.75 446.67 141.10 C 437.76 140.75 428.80 141.54 419.96 140.10 C 411.01 141.58 401.96 140.84 392.93 141.05 C 378.31 140.96 363.68 140.98 349.05 141.09 C 345.51 141.24 342.52 138.85 339.02 138.75 C 336.08 138.46 332.82 140.19 330.37 137.80 C 329.69 138.03 329.01 138.28 328.34 138.52 C 328.00 138.10 327.31 137.24 326.97 136.81 C 331.15 130.79 336.63 125.88 341.74 120.68 C 345.63 116.86 349.22 112.63 353.95 109.79 C 365.33 100.84 378.47 94.42 391.79 88.90 C 397.23 86.55 403.14 85.73 408.91 84.56 C 412.63 83.82 416.13 82.11 419.96 81.85 Z" />
<path fill="#4cb2fe" opacity="1.00" d=" M 478.00 353.35 C 478.47 352.98 479.43 352.24 479.90 351.87 C 479.43 352.24 478.47 352.98 478.00 353.35 Z" />
</g>
<g id="#59a3d6ff">
<path fill="#59a3d6" opacity="1.00" d=" M 541.88 127.83 C 542.52 127.88 543.81 127.97 544.45 128.02 C 549.43 134.25 554.52 140.46 558.51 147.40 C 566.17 161.39 572.73 176.25 575.35 192.08 C 574.54 191.38 573.75 190.66 572.98 189.93 C 571.87 185.31 569.97 180.94 568.50 176.43 C 565.72 165.47 560.51 155.20 554.14 145.91 C 550.84 142.11 549.31 137.08 545.39 133.79 C 544.13 131.86 543.10 129.79 541.88 127.83 Z" />
</g>
<g id="#43a6fdff">
<path fill="#43a6fd" opacity="1.00" d=" M 545.39 133.79 C 549.31 137.08 550.84 142.11 554.14 145.91 C 560.51 155.20 565.72 165.47 568.50 176.43 C 569.97 180.94 571.87 185.31 572.98 189.93 C 573.34 193.15 573.49 196.40 574.13 199.58 C 571.04 198.39 571.89 194.97 571.71 192.35 C 571.33 192.60 570.96 192.84 570.60 193.09 C 567.73 191.88 565.16 193.56 563.73 196.07 C 563.07 195.99 561.74 195.82 561.08 195.74 C 561.21 194.57 561.36 193.40 561.51 192.23 C 558.77 192.23 556.04 191.85 553.71 190.34 C 549.28 187.64 544.11 190.03 539.34 189.64 C 536.16 188.39 537.32 184.67 537.61 182.10 C 537.30 182.41 536.67 183.03 536.36 183.33 C 536.16 184.97 535.97 186.61 535.78 188.26 C 535.36 188.37 534.53 188.60 534.11 188.72 C 534.08 192.53 534.05 196.35 533.61 200.14 C 532.79 196.09 533.01 191.94 532.53 187.86 C 531.55 195.97 531.58 204.17 530.74 212.31 C 529.38 199.75 531.20 187.06 529.76 174.51 C 529.58 172.72 528.81 171.07 527.98 169.51 L 527.76 169.06 C 525.87 166.71 522.00 166.77 520.02 168.97 C 516.95 172.05 512.89 173.79 509.60 176.57 C 500.95 182.61 492.34 188.72 483.54 194.54 C 482.03 195.63 481.08 197.23 480.23 198.84 C 480.42 193.08 480.03 187.03 477.01 181.96 C 474.80 178.32 472.49 174.58 469.19 171.83 C 465.00 168.95 460.24 166.40 455.05 166.24 C 428.06 165.94 401.06 166.36 374.07 165.87 C 366.72 166.07 359.34 165.36 352.01 166.11 C 348.56 166.44 344.68 169.14 344.97 172.97 C 345.23 182.12 345.60 191.29 345.06 200.44 C 344.44 198.35 343.89 196.24 343.45 194.10 C 338.82 193.32 334.31 194.50 329.86 195.58 C 325.37 195.52 320.96 194.38 316.48 194.07 C 316.06 195.37 315.65 196.68 315.24 197.99 C 314.00 197.13 312.76 196.26 311.52 195.40 C 311.20 194.26 310.88 193.13 310.56 192.00 C 308.96 192.47 307.34 193.85 305.64 193.40 C 303.66 192.91 304.11 190.52 303.94 188.99 C 304.03 185.44 304.25 181.88 303.73 178.35 C 304.94 174.39 306.39 170.50 307.80 166.61 C 309.62 166.04 311.76 165.45 312.20 163.30 C 313.72 158.75 315.63 154.38 318.09 150.26 C 319.95 145.06 324.60 141.74 326.97 136.81 C 327.31 137.24 328.00 138.10 328.34 138.52 C 329.01 138.28 329.69 138.03 330.37 137.80 C 332.82 140.19 336.08 138.46 339.02 138.75 C 342.52 138.85 345.51 141.24 349.05 141.09 C 363.68 140.98 378.31 140.96 392.93 141.05 C 401.96 140.84 411.01 141.58 419.96 140.10 C 428.80 141.54 437.76 140.75 446.67 141.10 C 449.70 144.75 454.78 144.08 458.99 143.96 C 461.92 143.76 464.11 141.34 466.97 140.95 C 470.34 140.95 473.60 142.14 476.98 141.91 C 482.36 141.52 487.64 140.06 493.05 140.14 C 498.71 140.62 504.30 141.86 510.00 142.09 C 516.74 142.42 523.37 140.91 530.06 140.32 C 532.52 140.13 534.95 139.55 537.20 138.53 C 539.84 139.62 542.55 140.90 545.49 140.51 C 543.90 139.35 542.28 138.24 540.65 137.16 C 542.23 136.04 543.81 134.92 545.39 133.79 Z" />
</g>
<g id="#5e9dd9ff">
<path fill="#5e9dd9" opacity="1.00" d=" M 344.97 172.97 C 344.68 169.14 348.56 166.44 352.01 166.11 C 359.34 165.36 366.72 166.07 374.07 165.87 C 401.06 166.36 428.06 165.94 455.05 166.24 C 460.24 166.40 465.00 168.95 469.19 171.83 C 472.49 174.58 474.80 178.32 477.01 181.96 C 480.03 187.03 480.42 193.08 480.23 198.84 C 481.08 197.23 482.03 195.63 483.54 194.54 C 483.44 195.69 483.35 196.84 483.26 197.99 C 482.31 207.31 483.24 216.67 483.12 226.01 C 483.24 230.16 482.78 234.37 483.49 238.49 C 488.26 243.29 494.50 246.23 499.93 250.19 C 505.40 254.11 511.01 257.85 516.47 261.78 C 519.87 264.19 523.12 267.25 527.42 267.88 L 527.20 268.22 C 526.88 268.70 526.23 269.65 525.91 270.13 C 521.26 268.97 517.61 265.76 513.73 263.15 C 506.48 258.54 500.32 252.34 492.63 248.40 C 488.71 246.52 485.57 243.46 481.97 241.11 C 479.95 241.11 479.86 243.47 479.74 244.96 C 479.46 251.92 479.69 258.89 479.65 265.86 C 479.37 265.62 478.80 265.14 478.52 264.91 C 478.12 241.62 478.46 218.32 478.42 195.03 C 478.55 191.00 477.61 186.90 474.96 183.77 C 472.83 180.48 470.93 176.88 467.68 174.54 C 462.49 170.26 455.61 168.70 449.02 168.48 C 417.68 168.52 386.35 168.49 355.01 168.46 C 351.69 168.16 347.46 170.07 347.62 173.92 C 347.53 194.95 347.69 215.99 347.62 237.03 C 347.65 240.93 348.26 244.79 348.55 248.68 C 347.75 247.57 346.98 246.47 346.20 245.35 C 345.78 246.32 345.37 247.28 344.96 248.26 C 345.84 239.53 345.24 230.76 345.39 222.02 C 345.25 214.83 345.79 207.61 345.06 200.44 C 345.60 191.29 345.23 182.12 344.97 172.97 Z" />
</g>
<g id="#639dd0ff">
<path fill="#639dd0" opacity="1.00" d=" M 520.02 168.97 C 522.00 166.77 525.87 166.71 527.76 169.06 C 522.47 169.01 519.03 173.30 515.01 176.02 C 510.07 179.81 504.48 182.66 499.64 186.60 C 494.53 190.90 488.91 194.47 483.26 197.99 C 483.35 196.84 483.44 195.69 483.54 194.54 C 492.34 188.72 500.95 182.61 509.60 176.57 C 512.89 173.79 516.95 172.05 520.02 168.97 Z" />
</g>
<g id="#e1fdffff">
<path fill="#e1fdff" opacity="1.00" d=" M 515.01 176.02 C 519.03 173.30 522.47 169.01 527.76 169.06 L 527.98 169.51 C 528.65 181.00 528.15 192.53 528.27 204.03 C 528.13 213.70 528.60 223.38 527.98 233.04 C 527.93 244.65 528.30 256.27 527.42 267.88 C 523.12 267.25 519.87 264.19 516.47 261.78 C 511.01 257.85 505.40 254.11 499.93 250.19 C 494.50 246.23 488.26 243.29 483.49 238.49 C 482.78 234.37 483.24 230.16 483.12 226.01 C 483.24 216.67 482.31 207.31 483.26 197.99 C 488.91 194.47 494.53 190.90 499.64 186.60 C 504.48 182.66 510.07 179.81 515.01 176.02 M 515.45 180.42 C 508.99 181.90 505.08 187.76 499.07 190.15 C 495.89 191.21 495.59 195.79 491.94 196.02 C 487.01 197.08 485.17 202.54 484.95 207.01 C 484.88 217.53 484.38 228.15 486.27 238.57 C 492.78 241.64 498.46 246.03 504.50 249.88 C 504.75 250.29 505.25 251.11 505.50 251.52 C 509.42 252.97 512.92 255.27 516.45 257.47 C 517.52 261.54 521.73 263.71 525.75 262.92 C 526.19 257.64 526.07 252.34 526.08 247.04 C 525.82 223.76 526.51 200.47 525.78 177.19 C 523.84 176.70 521.92 176.21 520.00 175.70 C 517.91 176.67 516.25 178.23 515.45 180.42 Z" />
</g>
<g id="#4c8ddcff">
<path fill="#4c8ddc" opacity="1.00" d=" M 527.98 169.51 C 528.81 171.07 529.58 172.72 529.76 174.51 C 531.20 187.06 529.38 199.75 530.74 212.31 C 530.50 230.60 531.22 248.94 530.31 267.21 C 529.35 268.87 527.86 269.99 525.91 270.13 C 526.23 269.65 526.88 268.70 527.20 268.22 L 527.42 267.88 C 528.30 256.27 527.93 244.65 527.98 233.04 C 528.60 223.38 528.13 213.70 528.27 204.03 C 528.15 192.53 528.65 181.00 527.98 169.51 Z" />
</g>
<g id="#fefefdff">
<path fill="#fefefd" opacity="1.00" d=" M 515.45 180.42 C 516.25 178.23 517.91 176.67 520.00 175.70 C 521.92 176.21 523.84 176.70 525.78 177.19 C 526.51 200.47 525.82 223.76 526.08 247.04 C 526.07 252.34 526.19 257.64 525.75 262.92 C 521.73 263.71 517.52 261.54 516.45 257.47 C 512.92 255.27 509.42 252.97 505.50 251.52 C 505.25 251.11 504.75 250.29 504.50 249.88 C 498.46 246.03 492.78 241.64 486.27 238.57 C 484.38 228.15 484.88 217.53 484.95 207.01 C 485.17 202.54 487.01 197.08 491.94 196.02 C 495.59 195.79 495.89 191.21 499.07 190.15 C 505.08 187.76 508.99 181.90 515.45 180.42 Z" />
</g>
<g id="#3a95fdff">
<path fill="#3a95fd" opacity="1.00" d=" M 300.20 195.97 C 300.59 189.97 302.06 184.10 303.73 178.35 C 304.25 181.88 304.03 185.44 303.94 188.99 C 304.11 190.52 303.66 192.91 305.64 193.40 C 307.34 193.85 308.96 192.47 310.56 192.00 C 310.88 193.13 311.20 194.26 311.52 195.40 C 312.76 196.26 314.00 197.13 315.24 197.99 C 315.65 196.68 316.06 195.37 316.48 194.07 C 320.96 194.38 325.37 195.52 329.86 195.58 C 334.31 194.50 338.82 193.32 343.45 194.10 C 343.89 196.24 344.44 198.35 345.06 200.44 C 345.79 207.61 345.25 214.83 345.39 222.02 C 345.24 230.76 345.84 239.53 344.96 248.26 C 344.34 246.67 343.73 245.09 343.15 243.50 C 340.26 242.26 337.13 241.97 334.02 241.92 C 330.86 241.98 328.12 240.05 325.02 239.83 C 322.83 239.64 320.83 240.63 318.88 241.44 C 316.75 241.29 314.62 241.16 312.49 241.07 C 312.14 242.40 311.80 243.74 311.45 245.07 C 308.48 241.63 309.45 236.35 305.86 233.31 C 303.11 237.96 307.93 242.05 308.15 246.72 C 307.05 246.24 305.96 245.76 304.88 245.28 C 304.01 249.60 303.93 254.02 303.48 258.39 C 301.72 251.64 300.13 244.83 298.88 237.97 C 297.86 227.01 298.22 215.98 298.40 205.00 C 298.18 201.83 300.09 199.09 300.20 195.97 Z" />
</g>
<g id="#3994fdff">
<path fill="#3994fd" opacity="1.00" d=" M 536.36 183.33 C 536.67 183.03 537.30 182.41 537.61 182.10 C 537.32 184.67 536.16 188.39 539.34 189.64 C 544.11 190.03 549.28 187.64 553.71 190.34 C 556.04 191.85 558.77 192.23 561.51 192.23 C 561.36 193.40 561.21 194.57 561.08 195.74 C 561.74 195.82 563.07 195.99 563.73 196.07 C 565.16 193.56 567.73 191.88 570.60 193.09 C 570.96 192.84 571.33 192.60 571.71 192.35 C 571.89 194.97 571.04 198.39 574.13 199.58 C 575.88 205.57 575.27 211.84 575.41 217.98 C 575.73 232.75 573.82 247.88 567.91 261.50 C 566.49 262.64 565.02 263.72 563.58 264.82 C 559.97 262.94 559.89 258.90 559.91 255.32 C 557.40 256.06 554.61 257.26 552.08 255.85 C 548.67 254.20 545.00 253.16 541.21 253.00 C 540.63 253.41 540.06 253.83 539.50 254.25 C 538.40 253.78 536.53 251.86 535.94 253.90 C 537.54 256.51 538.23 259.34 536.69 262.18 C 533.83 261.36 533.12 258.45 532.28 255.96 C 531.79 259.85 532.62 263.75 532.16 267.64 C 531.70 267.53 530.77 267.32 530.31 267.21 C 531.22 248.94 530.50 230.60 530.74 212.31 C 531.58 204.17 531.55 195.97 532.53 187.86 C 533.01 191.94 532.79 196.09 533.61 200.14 C 534.05 196.35 534.08 192.53 534.11 188.72 C 534.53 188.60 535.36 188.37 535.78 188.26 C 535.97 186.61 536.16 184.97 536.36 183.33 Z" />
</g>
<g id="#acdaf7ff">
<path fill="#acdaf7" opacity="1.00" d=" M 474.96 183.77 C 477.61 186.90 478.55 191.00 478.42 195.03 C 478.46 218.32 478.12 241.62 478.52 264.91 C 477.35 267.93 474.17 269.17 471.11 268.91 C 439.06 268.90 407.00 268.92 374.95 268.92 C 371.57 269.04 368.21 268.38 365.27 266.66 C 370.57 266.05 375.74 267.74 381.03 267.53 C 410.35 267.50 439.67 267.49 469.00 267.52 C 471.50 267.51 473.96 266.93 476.40 266.36 C 477.14 252.59 476.54 238.77 476.90 224.99 C 477.55 218.32 476.49 211.64 477.07 204.97 C 476.78 197.88 477.15 190.62 474.96 183.77 Z" />
</g>
<g id="#f2f6f6ff">
</g>
<g id="#4980c9ff">
<path fill="#4980c9" opacity="1.00" d=" M 572.98 189.93 C 573.75 190.66 574.54 191.38 575.35 192.08 C 574.16 193.36 574.69 195.30 576.19 196.06 C 576.29 197.17 576.40 198.28 576.52 199.40 C 576.39 203.78 574.99 208.64 577.55 212.60 C 577.68 215.55 577.64 218.51 577.65 221.46 C 575.58 224.60 576.54 228.49 576.35 232.01 C 576.62 236.79 574.73 241.41 575.33 246.18 L 574.54 246.44 C 574.48 246.89 574.38 247.80 574.32 248.25 C 574.34 249.00 574.38 250.50 574.39 251.25 C 572.51 252.22 572.41 254.45 572.56 256.30 C 572.55 256.97 572.52 258.32 572.51 258.99 C 572.18 259.49 571.51 260.47 571.18 260.97 C 569.98 261.72 569.64 262.76 570.17 264.11 C 569.49 266.60 568.71 269.06 567.61 271.39 C 567.53 271.58 567.35 271.94 567.27 272.13 L 566.86 272.96 C 566.79 273.13 566.64 273.46 566.57 273.63 C 566.03 275.03 565.57 276.46 565.11 277.89 C 564.78 278.40 564.11 279.43 563.77 279.94 C 563.65 280.44 563.40 281.45 563.27 281.95 C 561.95 282.21 561.27 283.02 561.22 284.38 C 557.98 292.65 552.54 299.99 546.65 306.59 C 546.54 306.72 546.30 306.98 546.18 307.12 C 546.07 307.25 545.84 307.53 545.73 307.66 C 545.06 308.55 544.39 309.45 543.74 310.35 C 543.31 310.78 542.46 311.64 542.03 312.07 C 541.66 312.45 540.92 313.19 540.56 313.57 C 540.43 313.70 540.17 313.95 540.04 314.08 C 539.87 314.25 539.54 314.58 539.37 314.74 C 538.98 315.12 538.21 315.88 537.83 316.26 C 537.69 316.40 537.41 316.68 537.27 316.82 C 536.89 317.23 536.12 318.03 535.74 318.44 C 535.58 318.62 535.25 318.98 535.08 319.17 C 534.89 319.39 534.52 319.82 534.33 320.04 C 534.04 320.33 533.46 320.90 533.17 321.19 C 532.88 321.46 532.29 322.01 532.00 322.28 C 531.79 322.48 531.37 322.87 531.15 323.07 C 531.02 323.19 530.74 323.44 530.61 323.57 C 529.36 324.71 528.05 325.75 526.66 326.70 C 526.54 326.79 526.29 326.96 526.16 327.05 C 526.03 327.14 525.76 327.33 525.63 327.42 C 524.93 327.92 523.54 328.91 522.85 329.41 C 522.77 329.47 522.60 329.60 522.52 329.67 C 521.02 331.17 519.41 332.56 517.62 333.70 C 517.48 333.80 517.20 334.00 517.06 334.10 C 516.92 334.20 516.64 334.40 516.50 334.51 C 514.96 335.60 513.35 336.57 511.73 337.51 C 511.64 337.57 511.48 337.67 511.40 337.72 C 509.86 338.70 508.31 339.64 506.72 340.52 C 506.64 340.57 506.47 340.66 506.39 340.71 C 504.31 341.91 502.20 343.03 500.04 344.07 C 499.52 344.40 498.49 345.06 497.97 345.38 C 495.89 346.24 493.74 346.96 491.61 347.67 C 491.45 347.74 491.12 347.87 490.95 347.94 L 490.13 348.31 C 489.94 348.40 489.57 348.58 489.38 348.67 L 488.64 349.04 C 488.01 349.33 486.74 349.89 486.11 350.18 C 484.64 349.69 483.62 350.15 483.04 351.54 C 481.99 351.65 480.94 351.75 479.90 351.87 C 479.43 352.24 478.47 352.98 478.00 353.35 C 476.00 353.44 474.01 353.48 472.03 353.52 C 470.61 353.43 469.66 354.06 469.19 355.40 C 467.13 355.67 465.08 356.07 463.05 356.46 C 463.72 355.53 464.39 354.61 465.07 353.69 C 473.12 352.25 480.74 349.16 488.42 346.46 C 497.12 342.38 506.14 338.82 514.05 333.30 C 517.72 330.97 520.78 327.84 524.38 325.42 C 531.06 320.84 535.89 314.24 541.65 308.66 C 545.81 303.52 550.36 298.54 553.23 292.52 C 559.85 283.13 565.11 272.67 567.91 261.50 C 573.82 247.88 575.73 232.75 575.41 217.98 C 575.27 211.84 575.88 205.57 574.13 199.58 C 573.49 196.40 573.34 193.15 572.98 189.93 Z" />
<path fill="#4980c9" opacity="1.00" d=" M 370.84 270.71 C 371.70 269.19 373.60 269.60 375.05 269.45 C 407.02 269.54 439.00 269.47 470.97 269.47 C 472.16 269.53 473.25 269.91 474.25 270.60 C 470.55 271.43 466.77 271.03 463.03 270.90 C 432.30 270.68 401.56 270.91 370.84 270.71 Z" />
</g>
<g id="#89c3f0ff">
<path fill="#89c3f0" opacity="1.00" d=" M 575.35 192.08 C 576.22 193.21 576.48 194.66 576.19 196.06 C 574.69 195.30 574.16 193.36 575.35 192.08 Z" />
</g>
<g id="#68a8e2ff">
<path fill="#68a8e2" opacity="1.00" d=" M 576.52 199.40 L 577.30 200.76 C 577.57 204.70 577.68 208.65 577.55 212.60 C 574.99 208.64 576.39 203.78 576.52 199.40 Z" />
</g>
<g id="#74abe3ff">
<path fill="#74abe3" opacity="1.00" d=" M 576.35 232.01 C 576.54 228.49 575.58 224.60 577.65 221.46 C 578.00 229.74 577.61 238.17 575.33 246.18 C 574.73 241.41 576.62 236.79 576.35 232.01 Z" />
</g>
<g id="#2f89fdff">
<path fill="#2f89fd" opacity="1.00" d=" M 308.15 246.72 C 307.93 242.05 303.11 237.96 305.86 233.31 C 309.45 236.35 308.48 241.63 311.45 245.07 C 311.80 243.74 312.14 242.40 312.49 241.07 C 314.62 241.16 316.75 241.29 318.88 241.44 C 320.83 240.63 322.83 239.64 325.02 239.83 C 328.12 240.05 330.86 241.98 334.02 241.92 C 337.13 241.97 340.26 242.26 343.15 243.50 C 343.73 245.09 344.34 246.67 344.96 248.26 C 345.37 247.28 345.78 246.32 346.20 245.35 C 346.98 246.47 347.75 247.57 348.55 248.68 C 351.32 256.65 357.04 263.94 365.27 266.66 C 368.21 268.38 371.57 269.04 374.95 268.92 C 407.00 268.92 439.06 268.90 471.11 268.91 C 474.17 269.17 477.35 267.93 478.52 264.91 C 478.80 265.14 479.37 265.62 479.65 265.86 C 479.69 258.89 479.46 251.92 479.74 244.96 C 479.86 243.47 479.95 241.11 481.97 241.11 C 485.57 243.46 488.71 246.52 492.63 248.40 C 500.32 252.34 506.48 258.54 513.73 263.15 C 517.61 265.76 521.26 268.97 525.91 270.13 C 527.86 269.99 529.35 268.87 530.31 267.21 C 530.77 267.32 531.70 267.53 532.16 267.64 C 532.62 263.75 531.79 259.85 532.28 255.96 C 533.12 258.45 533.83 261.36 536.69 262.18 C 538.23 259.34 537.54 256.51 535.94 253.90 C 536.53 251.86 538.40 253.78 539.50 254.25 C 540.06 253.83 540.63 253.41 541.21 253.00 C 545.00 253.16 548.67 254.20 552.08 255.85 C 554.61 257.26 557.40 256.06 559.91 255.32 C 559.89 258.90 559.97 262.94 563.58 264.82 C 565.02 263.72 566.49 262.64 567.91 261.50 C 565.11 272.67 559.85 283.13 553.23 292.52 C 553.59 289.84 554.15 287.20 554.45 284.53 C 552.48 283.96 550.77 285.46 549.03 286.10 C 547.71 283.88 546.30 281.71 544.77 279.64 C 543.57 279.70 542.37 279.75 541.19 279.82 C 540.43 279.33 539.68 278.84 538.93 278.35 C 538.28 278.84 537.64 279.33 537.01 279.83 C 536.39 279.36 535.78 278.89 535.17 278.43 C 530.77 280.51 525.69 281.63 520.87 280.59 C 522.27 280.18 523.68 279.77 525.09 279.37 C 522.80 278.85 520.65 279.54 518.63 280.57 C 516.44 281.72 513.99 281.03 511.75 280.46 C 513.92 280.11 516.11 279.84 518.30 279.54 C 517.85 278.52 517.10 278.05 516.05 278.12 C 511.27 278.44 506.40 278.91 501.95 280.82 C 497.76 282.59 494.39 278.01 490.30 278.40 C 488.69 279.35 487.32 280.65 485.69 281.58 C 481.94 280.79 478.27 279.64 474.50 278.94 C 470.91 279.35 467.54 277.67 464.06 277.16 C 464.58 278.10 465.11 279.04 465.65 279.98 C 460.45 280.06 455.22 280.43 450.04 279.81 C 442.41 278.70 434.65 278.97 426.97 279.23 C 411.41 281.57 395.53 278.53 380.01 281.13 C 377.52 281.39 375.52 279.34 373.07 279.23 C 369.82 278.93 366.59 278.30 363.33 278.19 C 361.95 279.28 361.07 281.35 359.04 281.19 C 351.21 281.12 343.08 278.35 335.42 281.12 C 333.13 280.56 330.69 279.38 328.34 280.36 C 327.11 281.57 326.72 283.38 325.94 284.89 C 324.17 286.16 322.46 287.51 320.85 288.97 C 319.80 288.65 318.75 288.34 317.71 288.03 C 317.65 288.54 317.53 289.56 317.47 290.07 C 316.98 289.40 316.52 288.72 316.09 288.03 C 311.03 278.54 306.57 268.71 303.48 258.39 C 303.93 254.02 304.01 249.60 304.88 245.28 C 305.96 245.76 307.05 246.24 308.15 246.72 M 370.84 270.71 C 401.56 270.91 432.30 270.68 463.03 270.90 C 466.77 271.03 470.55 271.43 474.25 270.60 C 473.25 269.91 472.16 269.53 470.97 269.47 C 439.00 269.47 407.02 269.54 375.05 269.45 C 373.60 269.60 371.70 269.19 370.84 270.71 Z" />
</g>
<g id="#6ea2dbff">
<path fill="#6ea2db" opacity="1.00" d=" M 574.54 246.44 L 575.33 246.18 C 575.08 246.70 574.57 247.73 574.32 248.25 C 574.38 247.80 574.48 246.89 574.54 246.44 Z" />
</g>
<g id="#7eb1dfff">
<path fill="#7eb1df" opacity="1.00" d=" M 572.56 256.30 C 572.41 254.45 572.51 252.22 574.39 251.25 C 574.57 253.09 574.50 255.41 572.56 256.30 Z" />
</g>
<g id="#7fafe7ff">
<path fill="#7fafe7" opacity="1.00" d=" M 571.18 260.97 C 571.51 260.47 572.18 259.49 572.51 258.99 C 572.18 259.49 571.51 260.47 571.18 260.97 Z" />
</g>
<g id="#83b0eaff">
<path fill="#83b0ea" opacity="1.00" d=" M 570.17 264.11 C 569.64 262.76 569.98 261.72 571.18 260.97 C 571.69 262.27 571.36 263.32 570.17 264.11 Z" />
</g>
<g id="#85b6dfff">
<path fill="#85b6df" opacity="1.00" d=" M 567.27 272.13 C 567.35 271.94 567.53 271.58 567.61 271.39 C 567.53 271.58 567.35 271.94 567.27 272.13 Z" />
</g>
<g id="#7bade0ff">
<path fill="#7bade0" opacity="1.00" d=" M 566.57 273.63 C 566.64 273.46 566.79 273.13 566.86 272.96 C 566.79 273.13 566.64 273.46 566.57 273.63 Z" />
</g>
<g id="#277efeff">
<path fill="#277efe" opacity="1.00" d=" M 464.06 277.16 C 467.54 277.67 470.91 279.35 474.50 278.94 C 478.27 279.64 481.94 280.79 485.69 281.58 C 487.32 280.65 488.69 279.35 490.30 278.40 C 494.39 278.01 497.76 282.59 501.95 280.82 C 506.40 278.91 511.27 278.44 516.05 278.12 C 517.10 278.05 517.85 278.52 518.30 279.54 C 516.11 279.84 513.92 280.11 511.75 280.46 C 513.99 281.03 516.44 281.72 518.63 280.57 C 520.65 279.54 522.80 278.85 525.09 279.37 C 523.68 279.77 522.27 280.18 520.87 280.59 C 525.69 281.63 530.77 280.51 535.17 278.43 C 535.78 278.89 536.39 279.36 537.01 279.83 C 537.64 279.33 538.28 278.84 538.93 278.35 C 539.68 278.84 540.43 279.33 541.19 279.82 C 542.37 279.75 543.57 279.70 544.77 279.64 C 546.30 281.71 547.71 283.88 549.03 286.10 C 550.77 285.46 552.48 283.96 554.45 284.53 C 554.15 287.20 553.59 289.84 553.23 292.52 C 550.36 298.54 545.81 303.52 541.65 308.66 C 535.89 314.24 531.06 320.84 524.38 325.42 C 520.78 327.84 517.72 330.97 514.05 333.30 C 512.95 332.08 511.86 330.86 510.77 329.64 C 506.63 331.86 503.01 334.88 498.93 337.19 C 497.92 335.80 496.73 334.49 496.12 332.86 C 496.55 331.13 497.41 329.55 498.16 327.95 C 496.63 326.67 495.30 324.49 493.01 324.87 C 488.88 324.96 484.75 325.73 480.95 327.38 C 475.60 323.42 470.17 328.90 464.45 328.25 C 464.17 328.91 463.63 330.24 463.36 330.90 C 462.06 329.09 460.87 327.20 459.36 325.57 C 456.32 324.74 453.11 326.49 449.99 325.79 C 442.99 324.21 435.68 325.56 429.04 327.98 C 425.18 328.82 421.96 324.45 418.10 326.18 C 415.06 327.60 411.80 328.35 408.45 327.89 C 408.15 326.59 407.86 325.30 407.58 324.00 C 402.94 323.10 398.73 325.33 394.35 326.31 C 385.95 326.48 377.47 324.30 369.13 326.25 C 368.05 326.85 367.13 327.68 366.18 328.46 C 367.51 329.29 368.85 330.12 370.19 330.96 C 369.43 331.91 368.68 332.86 367.93 333.82 C 366.10 332.16 364.72 328.64 361.78 329.31 C 362.49 330.40 363.24 331.51 363.98 332.60 C 363.42 332.75 362.30 333.06 361.75 333.21 C 357.52 330.51 354.20 326.66 349.94 324.01 C 344.31 320.39 340.74 314.59 335.88 310.15 C 329.58 304.11 324.57 296.84 320.85 288.97 C 322.46 287.51 324.17 286.16 325.94 284.89 C 326.72 283.38 327.11 281.57 328.34 280.36 C 330.69 279.38 333.13 280.56 335.42 281.12 C 343.08 278.35 351.21 281.12 359.04 281.19 C 361.07 281.35 361.95 279.28 363.33 278.19 C 366.59 278.30 369.82 278.93 373.07 279.23 C 375.52 279.34 377.52 281.39 380.01 281.13 C 395.53 278.53 411.41 281.57 426.97 279.23 C 434.65 278.97 442.41 278.70 450.04 279.81 C 455.22 280.43 460.45 280.06 465.65 279.98 C 465.11 279.04 464.58 278.10 464.06 277.16 Z" />
</g>
<g id="#95c5eaff">
<path fill="#95c5ea" opacity="1.00" d=" M 563.77 279.94 C 564.11 279.43 564.78 278.40 565.11 277.89 C 564.78 278.40 564.11 279.43 563.77 279.94 Z" />
</g>
<g id="#8ebeedff">
<path fill="#8ebeed" opacity="1.00" d=" M 561.22 284.38 C 561.27 283.02 561.95 282.21 563.27 281.95 C 563.31 283.48 562.63 284.29 561.22 284.38 Z" />
</g>
<g id="#367bcbff">
<path fill="#367bcb" opacity="1.00" d=" M 317.71 288.03 C 318.75 288.34 319.80 288.65 320.85 288.97 C 324.57 296.84 329.58 304.11 335.88 310.15 C 340.74 314.59 344.31 320.39 349.94 324.01 C 354.20 326.66 357.52 330.51 361.75 333.21 C 366.33 336.74 371.58 339.26 376.42 342.42 C 384.78 345.91 393.18 349.56 402.03 351.62 C 409.74 352.59 417.12 355.68 424.99 355.41 C 429.33 355.25 433.61 356.11 437.93 356.24 C 447.00 355.63 456.05 354.85 465.07 353.69 C 464.39 354.61 463.72 355.53 463.05 356.46 C 455.14 358.21 446.99 357.81 438.95 357.93 C 430.63 357.76 422.23 358.26 414.01 356.69 C 378.03 350.88 345.16 329.77 323.85 300.34 C 321.64 297.24 319.89 293.82 317.37 290.95 L 317.47 290.07 C 317.53 289.56 317.65 288.54 317.71 288.03 Z" />
</g>
<g id="#75a3dfff">
<path fill="#75a3df" opacity="1.00" d=" M 546.18 307.12 C 546.30 306.98 546.54 306.72 546.65 306.59 C 546.54 306.72 546.30 306.98 546.18 307.12 Z" />
</g>
<g id="#699bd6ff">
<path fill="#699bd6" opacity="1.00" d=" M 545.73 307.66 C 545.84 307.53 546.07 307.25 546.18 307.12 C 546.07 307.25 545.84 307.53 545.73 307.66 Z" />
</g>
<g id="#74a5e8ff">
<path fill="#74a5e8" opacity="1.00" d=" M 542.03 312.07 C 542.46 311.64 543.31 310.78 543.74 310.35 C 543.31 310.78 542.46 311.64 542.03 312.07 Z" />
</g>
<g id="#789fd8ff">
<path fill="#789fd8" opacity="1.00" d=" M 540.04 314.08 C 540.17 313.95 540.43 313.70 540.56 313.57 C 540.43 313.70 540.17 313.95 540.04 314.08 Z" />
</g>
<g id="#779fdaff">
<path fill="#779fda" opacity="1.00" d=" M 539.37 314.74 C 539.54 314.58 539.87 314.25 540.04 314.08 C 539.87 314.25 539.54 314.58 539.37 314.74 Z" />
</g>
<g id="#74a3d9ff">
<path fill="#74a3d9" opacity="1.00" d=" M 537.27 316.82 C 537.41 316.68 537.69 316.40 537.83 316.26 C 537.69 316.40 537.41 316.68 537.27 316.82 Z" />
</g>
<g id="#77abe5ff">
<path fill="#77abe5" opacity="1.00" d=" M 535.08 319.17 C 535.25 318.98 535.58 318.62 535.74 318.44 C 535.58 318.62 535.25 318.98 535.08 319.17 Z" />
</g>
<g id="#709edcff">
<path fill="#709edc" opacity="1.00" d=" M 534.33 320.04 C 534.52 319.82 534.89 319.39 535.08 319.17 C 534.89 319.39 534.52 319.82 534.33 320.04 Z" />
</g>
<g id="#7ca6d8ff">
<path fill="#7ca6d8" opacity="1.00" d=" M 533.17 321.19 C 533.46 320.90 534.04 320.33 534.33 320.04 C 534.04 320.33 533.46 320.90 533.17 321.19 Z" />
</g>
<g id="#80afd9ff">
<path fill="#80afd9" opacity="1.00" d=" M 532.00 322.28 C 532.29 322.01 532.88 321.46 533.17 321.19 C 532.88 321.46 532.29 322.01 532.00 322.28 Z" />
</g>
<g id="#6fa5d3ff">
<path fill="#6fa5d3" opacity="1.00" d=" M 531.15 323.07 C 531.37 322.87 531.79 322.48 532.00 322.28 C 531.79 322.48 531.37 322.87 531.15 323.07 Z" />
</g>
<g id="#81b6e8ff">
<path fill="#81b6e8" opacity="1.00" d=" M 530.61 323.57 C 530.74 323.44 531.02 323.19 531.15 323.07 C 531.02 323.19 530.74 323.44 530.61 323.57 Z" />
</g>
<g id="#1e76feff">
<path fill="#1e76fe" opacity="1.00" d=" M 394.35 326.31 C 398.73 325.33 402.94 323.10 407.58 324.00 C 407.86 325.30 408.15 326.59 408.45 327.89 C 411.80 328.35 415.06 327.60 418.10 326.18 C 421.96 324.45 425.18 328.82 429.04 327.98 C 435.68 325.56 442.99 324.21 449.99 325.79 C 453.11 326.49 456.32 324.74 459.36 325.57 C 460.87 327.20 462.06 329.09 463.36 330.90 C 463.63 330.24 464.17 328.91 464.45 328.25 C 470.17 328.90 475.60 323.42 480.95 327.38 C 484.75 325.73 488.88 324.96 493.01 324.87 C 495.30 324.49 496.63 326.67 498.16 327.95 C 497.41 329.55 496.55 331.13 496.12 332.86 C 496.73 334.49 497.92 335.80 498.93 337.19 C 503.01 334.88 506.63 331.86 510.77 329.64 C 511.86 330.86 512.95 332.08 514.05 333.30 C 506.14 338.82 497.12 342.38 488.42 346.46 C 480.74 349.16 473.12 352.25 465.07 353.69 C 456.05 354.85 447.00 355.63 437.93 356.24 C 433.61 356.11 429.33 355.25 424.99 355.41 C 417.12 355.68 409.74 352.59 402.03 351.62 C 393.18 349.56 384.78 345.91 376.42 342.42 C 371.58 339.26 366.33 336.74 361.75 333.21 C 362.30 333.06 363.42 332.75 363.98 332.60 C 363.24 331.51 362.49 330.40 361.78 329.31 C 364.72 328.64 366.10 332.16 367.93 333.82 C 368.68 332.86 369.43 331.91 370.19 330.96 C 368.85 330.12 367.51 329.29 366.18 328.46 C 367.13 327.68 368.05 326.85 369.13 326.25 C 377.47 324.30 385.95 326.48 394.35 326.31 Z" />
</g>
<g id="#6fa1d6ff">
<path fill="#6fa1d6" opacity="1.00" d=" M 526.16 327.05 C 526.29 326.96 526.54 326.79 526.66 326.70 C 526.54 326.79 526.29 326.96 526.16 327.05 Z" />
</g>
<g id="#79a5d2ff">
<path fill="#79a5d2" opacity="1.00" d=" M 525.63 327.42 C 525.76 327.33 526.03 327.14 526.16 327.05 C 526.03 327.14 525.76 327.33 525.63 327.42 Z" />
</g>
<g id="#6e9edcff">
<path fill="#6e9edc" opacity="1.00" d=" M 522.52 329.67 C 522.60 329.60 522.77 329.47 522.85 329.41 C 522.77 329.47 522.60 329.60 522.52 329.67 Z" />
</g>
<g id="#7ba9e4ff">
<path fill="#7ba9e4" opacity="1.00" d=" M 517.06 334.10 C 517.20 334.00 517.48 333.80 517.62 333.70 C 517.48 333.80 517.20 334.00 517.06 334.10 Z" />
</g>
<g id="#8bb9ebff">
<path fill="#8bb9eb" opacity="1.00" d=" M 516.50 334.51 C 516.64 334.40 516.92 334.20 517.06 334.10 C 516.92 334.20 516.64 334.40 516.50 334.51 Z" />
</g>
<g id="#80b3eaff">
<path fill="#80b3ea" opacity="1.00" d=" M 511.40 337.72 C 511.48 337.67 511.64 337.57 511.73 337.51 C 511.64 337.57 511.48 337.67 511.40 337.72 Z" />
</g>
<g id="#71a3d8ff">
<path fill="#71a3d8" opacity="1.00" d=" M 506.39 340.71 C 506.47 340.66 506.64 340.57 506.72 340.52 C 506.64 340.57 506.47 340.66 506.39 340.71 Z" />
</g>
<g id="#7ba5deff">
<path fill="#7ba5de" opacity="1.00" d=" M 497.97 345.38 C 498.49 345.06 499.52 344.40 500.04 344.07 C 499.52 344.40 498.49 345.06 497.97 345.38 Z" />
</g>
<g id="#6595d5ff">
<path fill="#6595d5" opacity="1.00" d=" M 490.95 347.94 C 491.12 347.87 491.45 347.74 491.61 347.67 C 491.45 347.74 491.12 347.87 490.95 347.94 Z" />
</g>
<g id="#6f9cd7ff">
<path fill="#6f9cd7" opacity="1.00" d=" M 489.38 348.67 C 489.57 348.58 489.94 348.40 490.13 348.31 C 489.94 348.40 489.57 348.58 489.38 348.67 Z" />
</g>
<g id="#7ca9e2ff">
<path fill="#7ca9e2" opacity="1.00" d=" M 486.11 350.18 C 486.74 349.89 488.01 349.33 488.64 349.04 C 488.01 349.33 486.74 349.89 486.11 350.18 Z" />
</g>
<g id="#76a6e0ff">
<path fill="#76a6e0" opacity="1.00" d=" M 483.04 351.54 C 483.62 350.15 484.64 349.69 486.11 350.18 C 485.38 351.31 484.36 351.76 483.04 351.54 Z" />
</g>
<g id="#1097fcff">
<path fill="#1097fc" opacity="1.00" d=" M 469.19 355.40 C 469.66 354.06 470.61 353.43 472.03 353.52 C 472.45 353.74 473.30 354.17 473.73 354.39 C 472.29 355.04 470.74 355.35 469.19 355.40 Z" />
<path fill="#1097fc" opacity="1.00" d=" M 636.30 401.41 C 638.17 400.71 640.04 399.98 641.91 399.25 C 643.08 399.96 644.23 400.67 645.42 401.39 C 645.02 418.92 645.57 436.48 645.27 454.02 C 645.29 455.58 644.77 457.77 642.81 457.73 C 637.94 458.25 634.57 453.19 633.43 449.08 C 633.10 432.67 633.52 416.25 633.21 399.85 C 635.47 406.69 632.91 414.12 634.65 421.11 C 635.81 414.58 633.93 407.75 636.30 401.41 Z" />
</g>
<g id="#9ccef0ff">
<path fill="#9ccef0" opacity="1.00" d=" M 449.47 371.67 C 459.09 368.01 469.80 367.05 479.86 369.34 C 486.27 370.73 492.02 374.03 497.51 377.49 C 502.61 381.76 507.30 386.86 510.07 392.99 C 511.07 395.31 512.95 397.70 512.10 400.38 C 507.01 386.80 496.01 375.24 481.98 370.97 C 474.11 368.86 465.77 368.84 457.80 370.37 C 452.72 371.28 448.42 374.31 443.56 375.86 C 445.42 374.33 447.21 372.62 449.47 371.67 Z" />
</g>
<g id="#2e7cd2ff">
<path fill="#2e7cd2" opacity="1.00" d=" M 243.36 369.22 C 244.55 368.83 245.78 368.62 247.04 368.61 C 268.37 368.66 289.70 368.70 311.03 368.62 C 313.93 368.66 316.88 369.33 319.44 370.71 C 324.00 374.41 326.30 380.51 325.70 386.32 C 308.72 404.14 292.28 422.47 275.19 440.17 C 274.27 441.07 273.34 441.96 272.41 442.86 C 272.37 442.23 272.28 440.95 272.23 440.32 C 279.99 430.45 289.95 422.55 297.29 412.35 C 301.34 407.68 306.34 403.88 309.91 398.80 C 312.53 396.44 315.16 394.07 317.24 391.21 C 318.94 388.86 321.63 387.37 323.07 384.85 C 324.28 379.34 320.03 373.74 314.88 372.13 C 309.95 371.26 304.91 371.86 299.93 371.71 C 286.97 371.53 274.01 371.88 261.06 371.61 C 256.28 371.60 251.55 372.33 246.83 372.93 C 247.26 374.97 247.21 377.52 249.18 378.80 C 252.40 381.00 255.97 383.21 260.00 383.28 C 273.82 383.67 287.66 382.61 301.47 383.56 C 302.10 386.38 301.59 389.24 300.22 391.77 C 293.77 397.78 287.25 403.77 281.58 410.55 C 276.41 417.03 269.48 421.87 264.70 428.69 C 259.24 433.18 254.27 438.28 250.23 444.10 C 249.30 446.22 249.86 448.60 249.87 450.83 C 249.73 451.76 249.44 453.62 249.29 454.55 C 247.39 451.31 247.14 447.53 247.20 443.87 C 254.01 436.14 261.28 428.85 268.16 421.19 C 272.72 416.21 277.79 411.69 281.99 406.39 C 287.97 399.86 294.25 393.61 300.30 387.14 C 300.38 386.74 300.54 385.95 300.62 385.56 C 285.06 385.47 269.48 385.80 253.92 385.41 C 247.04 383.39 243.13 376.09 243.36 369.22 Z" />
</g>
<g id="#62a8daff">
<path fill="#62a8da" opacity="1.00" d=" M 520.50 372.00 C 520.39 370.61 520.79 369.39 521.69 368.34 C 526.74 369.57 532.51 370.14 536.27 374.16 C 532.13 372.87 528.33 370.51 523.95 370.04 C 523.42 369.94 522.35 369.74 521.81 369.65 C 521.47 388.76 521.77 407.90 521.68 427.02 C 521.83 437.90 521.46 448.79 521.87 459.67 C 523.45 460.00 525.05 460.32 526.65 460.63 C 524.97 461.14 523.24 461.44 521.51 461.64 C 519.91 460.69 520.81 458.47 520.50 456.96 C 520.55 428.64 520.54 400.32 520.50 372.00 Z" />
</g>
<g id="#3e89d1ff">
<path fill="#3e89d1" opacity="1.00" d=" M 540.16 373.11 C 547.59 368.80 556.77 367.78 565.09 369.64 C 572.50 370.97 578.87 375.50 584.02 380.81 C 590.09 374.63 598.04 369.32 606.99 369.27 C 613.37 369.09 620.13 368.73 626.01 371.67 C 632.23 374.70 638.16 379.05 641.77 385.07 C 643.53 387.94 645.86 390.74 645.89 394.28 C 645.91 396.28 645.73 398.27 645.51 400.26 C 642.39 389.30 635.57 378.65 624.76 374.06 C 618.99 371.09 612.31 371.19 606.02 371.72 C 601.42 371.95 597.47 374.52 593.43 376.43 C 590.81 377.61 589.16 380.15 586.67 381.50 C 584.60 381.96 582.07 382.23 580.39 380.67 C 576.52 377.28 571.97 374.84 567.36 372.64 C 562.84 370.60 557.78 371.51 553.01 371.60 C 547.55 371.38 543.46 376.18 538.00 375.95 C 533.86 376.22 530.15 374.05 526.84 371.84 C 525.88 371.22 524.93 370.61 523.95 370.04 C 528.33 370.51 532.13 372.87 536.27 374.16 C 537.63 374.91 538.94 373.59 540.16 373.11 Z" />
</g>
<g id="#4094d0ff">
<path fill="#4094d0" opacity="1.00" d=" M 344.73 376.52 C 350.31 373.05 356.42 369.93 363.10 369.44 C 369.04 368.99 375.07 368.88 380.98 369.78 C 392.16 372.54 402.60 379.30 408.72 389.20 C 415.26 398.39 416.98 410.13 416.25 421.15 C 414.89 426.74 413.73 432.55 410.55 437.45 C 404.46 448.20 394.10 456.76 381.99 459.68 C 371.58 462.54 360.15 461.36 350.49 456.58 C 337.39 449.97 327.62 437.13 325.19 422.61 C 325.60 416.36 325.43 410.09 325.85 403.85 C 329.05 393.10 335.31 382.87 344.73 376.52 M 350.25 376.26 C 345.82 378.31 341.11 380.91 338.96 385.53 C 334.47 388.82 332.27 394.09 329.73 398.85 C 327.67 405.00 326.45 411.54 326.60 418.04 C 327.50 425.15 329.84 432.01 333.72 438.05 C 333.99 439.06 334.48 439.96 335.20 440.73 C 339.17 445.10 342.97 449.82 348.23 452.72 C 353.87 455.64 359.86 458.31 366.30 458.65 C 372.53 459.36 378.64 457.72 384.74 456.75 C 391.13 454.27 396.91 450.40 401.62 445.41 C 405.86 442.45 407.87 437.63 410.30 433.28 C 411.14 431.96 411.72 430.51 412.02 428.98 C 412.85 424.97 414.57 421.12 414.45 416.96 C 414.76 410.22 413.23 403.52 410.69 397.32 C 409.11 393.74 407.30 390.10 404.16 387.63 C 402.12 384.45 399.05 382.20 396.27 379.72 C 392.24 376.13 386.97 374.48 381.98 372.73 C 376.53 370.82 370.69 371.70 365.05 371.57 C 359.70 371.42 355.12 374.53 350.25 376.26 Z" />
</g>
<g id="#469ed5ff">
<path fill="#469ed5" opacity="1.00" d=" M 457.80 370.37 C 465.77 368.84 474.11 368.86 481.98 370.97 C 496.01 375.24 507.01 386.80 512.10 400.38 C 512.06 401.45 512.10 402.85 513.31 403.32 C 515.28 409.45 514.42 415.95 514.50 422.27 L 513.87 423.10 C 513.17 423.92 512.86 424.89 512.94 426.00 C 512.51 427.37 512.06 428.73 511.82 430.15 C 511.59 431.32 511.27 432.45 510.84 433.56 C 510.83 433.61 510.79 433.69 510.77 433.74 L 509.88 435.56 C 509.85 435.61 509.81 435.71 509.78 435.75 L 508.84 437.60 C 508.82 437.65 508.77 437.74 508.75 437.79 C 507.59 440.50 505.77 442.84 503.70 444.92 C 503.62 445.01 503.47 445.18 503.39 445.27 C 503.30 445.38 503.13 445.59 503.04 445.70 C 502.46 446.30 501.30 447.49 500.72 448.09 C 500.59 448.20 500.32 448.41 500.19 448.52 C 499.96 448.73 499.50 449.15 499.27 449.36 C 499.03 449.61 498.55 450.10 498.31 450.34 C 498.05 450.55 497.52 450.98 497.25 451.19 C 497.00 451.34 496.50 451.65 496.24 451.80 C 495.67 452.20 494.52 452.99 493.94 453.39 C 493.77 453.49 493.41 453.68 493.24 453.77 C 492.01 454.20 490.57 454.74 490.23 456.15 C 489.58 456.30 488.28 456.62 487.63 456.78 C 486.58 456.87 485.76 457.36 485.17 458.24 L 483.92 458.33 C 483.46 458.57 482.54 459.06 482.08 459.31 C 481.54 459.33 480.48 459.38 479.95 459.41 C 479.48 459.61 478.54 460.01 478.08 460.21 C 470.38 461.96 462.24 461.49 454.68 459.34 C 454.63 459.32 454.52 459.29 454.47 459.27 C 451.31 458.28 448.35 456.78 445.50 455.11 C 445.45 455.08 445.34 455.01 445.29 454.98 C 444.54 454.51 443.06 453.56 442.32 453.09 C 442.27 453.05 442.18 452.99 442.13 452.95 L 440.48 451.70 C 440.44 451.66 440.36 451.59 440.32 451.56 C 439.81 451.12 438.81 450.24 438.30 449.81 C 438.27 449.77 438.19 449.70 438.16 449.67 C 437.10 448.70 436.09 447.69 435.10 446.67 C 434.98 446.54 434.74 446.28 434.61 446.15 C 434.44 445.96 434.08 445.58 433.90 445.39 C 433.78 445.25 433.54 444.98 433.42 444.85 C 431.58 442.78 429.78 440.51 429.03 437.80 C 428.70 437.39 428.05 436.57 427.72 436.16 L 427.07 434.80 C 427.05 434.75 427.02 434.66 427.00 434.62 C 426.79 433.89 426.36 432.44 426.15 431.72 C 426.15 430.70 425.78 429.84 425.04 429.16 C 424.24 424.63 423.84 420.03 422.68 415.58 C 422.68 415.15 422.69 414.31 422.69 413.88 C 424.47 412.36 424.14 409.98 423.34 408.04 C 423.40 407.21 423.52 405.56 423.58 404.74 C 425.45 403.81 425.56 401.59 425.48 399.77 C 425.49 399.32 425.51 398.43 425.52 397.98 C 425.83 397.48 426.47 396.48 426.79 395.98 C 427.04 395.47 427.54 394.46 427.79 393.95 C 428.02 393.44 428.48 392.41 428.71 391.90 C 429.04 391.42 429.69 390.44 430.02 389.96 C 430.51 389.22 431.01 388.48 431.51 387.75 C 431.88 387.27 432.63 386.30 433.00 385.81 C 433.34 385.50 434.01 384.86 434.35 384.55 C 434.44 384.46 434.62 384.27 434.71 384.18 C 435.10 383.77 435.87 382.95 436.25 382.54 C 436.44 382.34 436.82 381.93 437.01 381.73 C 437.19 381.54 437.55 381.18 437.73 380.99 C 437.88 380.84 438.17 380.55 438.32 380.40 C 439.95 378.75 441.72 377.26 443.56 375.86 C 448.42 374.31 452.72 371.28 457.80 370.37 M 426.05 406.23 C 423.44 413.68 423.89 422.51 427.92 429.38 C 427.72 431.95 429.51 434.15 430.57 436.37 C 437.25 447.62 448.70 456.77 461.96 458.37 C 468.65 459.75 475.36 457.92 481.98 457.02 C 488.86 455.17 494.59 450.46 499.48 445.45 C 503.45 441.99 506.82 437.39 508.33 432.35 C 511.36 425.77 513.63 418.35 512.37 411.02 C 512.00 404.47 509.14 398.46 506.33 392.67 C 503.66 388.78 500.50 385.22 497.26 381.80 C 488.49 374.85 477.44 369.67 466.01 370.79 C 447.09 372.45 428.81 386.90 426.05 406.23 Z" />
</g>
<g id="#288bd4ff">
<path fill="#288bd4" opacity="1.00" d=" M 521.81 369.65 C 522.35 369.74 523.42 369.94 523.95 370.04 C 524.93 370.61 525.88 371.22 526.84 371.84 C 525.14 372.35 523.06 372.87 523.38 375.11 C 523.20 384.40 523.22 393.70 523.19 403.00 C 523.43 412.46 522.00 421.96 523.44 431.38 C 523.24 440.10 523.02 448.83 523.51 457.54 C 526.41 457.65 529.56 457.76 532.05 456.01 C 535.31 451.74 534.89 446.04 534.88 440.97 C 534.62 432.53 535.29 424.07 534.67 415.64 C 535.73 410.37 534.91 404.98 535.72 399.69 C 536.29 400.90 536.85 402.12 537.39 403.36 C 537.45 417.91 537.34 432.46 537.41 447.01 C 537.39 449.88 537.07 452.94 535.37 455.36 C 533.22 458.12 529.91 459.64 526.65 460.63 C 525.05 460.32 523.45 460.00 521.87 459.67 C 521.46 448.79 521.83 437.90 521.68 427.02 C 521.77 407.90 521.47 388.76 521.81 369.65 Z" />
</g>
<g id="#148cf9ff">
<path fill="#148cf9" opacity="1.00" d=" M 426.05 406.23 C 428.81 386.90 447.09 372.45 466.01 370.79 C 477.44 369.67 488.49 374.85 497.26 381.80 C 500.50 385.22 503.66 388.78 506.33 392.67 C 509.14 398.46 512.00 404.47 512.37 411.02 C 513.63 418.35 511.36 425.77 508.33 432.35 C 508.47 429.34 508.31 426.34 507.88 423.36 C 506.74 423.07 505.61 422.79 504.48 422.51 C 503.77 421.43 503.07 420.37 502.36 419.30 C 502.18 419.89 501.80 421.05 501.61 421.64 C 501.01 421.80 499.81 422.12 499.21 422.28 C 498.90 414.79 499.83 406.79 495.92 400.02 C 493.68 394.04 488.29 390.27 483.25 386.79 C 474.06 382.27 462.91 382.65 453.70 386.93 C 440.49 394.31 434.09 411.66 439.43 425.84 C 440.33 428.40 441.71 430.75 443.01 433.12 C 440.19 433.26 437.27 433.16 434.65 432.00 C 434.04 430.12 436.29 428.63 437.02 427.02 C 436.70 426.52 436.05 425.51 435.73 425.01 C 435.32 426.22 434.92 427.44 434.52 428.66 C 430.23 423.79 431.66 416.52 427.32 411.77 C 426.89 415.70 426.63 419.73 427.68 423.59 C 428.24 425.48 428.29 427.44 427.92 429.38 C 423.89 422.51 423.44 413.68 426.05 406.23 Z" />
</g>
<g id="#158afaff">
<path fill="#158afa" opacity="1.00" d=" M 553.01 371.60 C 557.78 371.51 562.84 370.60 567.36 372.64 C 571.97 374.84 576.52 377.28 580.39 380.67 C 582.07 382.23 584.60 381.96 586.67 381.50 C 589.16 380.15 590.81 377.61 593.43 376.43 C 597.47 374.52 601.42 371.95 606.02 371.72 C 612.31 371.19 618.99 371.09 624.76 374.06 C 635.57 378.65 642.39 389.30 645.51 400.26 L 645.42 401.39 C 644.23 400.67 643.08 399.96 641.91 399.25 C 640.04 399.98 638.17 400.71 636.30 401.41 C 633.93 407.75 635.81 414.58 634.65 421.11 C 632.91 414.12 635.47 406.69 633.21 399.85 C 631.69 396.50 630.00 393.18 627.65 390.35 C 620.94 383.48 609.42 380.75 600.95 385.95 C 595.79 388.36 593.31 393.78 590.51 398.39 C 588.42 401.61 590.57 405.44 590.32 408.95 C 590.20 424.58 590.70 440.23 590.10 455.84 L 589.04 456.30 C 588.68 441.47 590.15 426.47 587.49 411.78 C 585.90 415.17 586.43 419.21 584.27 422.40 C 582.22 425.65 581.12 429.43 578.74 432.48 C 578.29 421.66 578.93 410.81 578.53 400.00 C 576.07 393.54 571.55 387.73 565.06 384.98 C 559.60 382.97 553.39 382.63 547.98 384.98 C 541.65 387.27 537.06 393.20 535.72 399.69 C 534.91 404.98 535.73 410.37 534.67 415.64 C 533.76 418.94 533.55 422.36 533.70 425.77 C 532.31 422.67 530.37 419.75 529.80 416.35 C 529.28 413.76 528.68 411.18 527.86 408.67 C 525.82 410.92 523.75 413.71 524.99 416.89 C 524.86 421.71 523.90 426.55 523.44 431.38 C 522.00 421.96 523.43 412.46 523.19 403.00 C 523.22 393.70 523.20 384.40 523.38 375.11 C 523.06 372.87 525.14 372.35 526.84 371.84 C 530.15 374.05 533.86 376.22 538.00 375.95 C 543.46 376.18 547.55 371.38 553.01 371.60 Z" />
</g>
<g id="#1588fbff">
<path fill="#1588fb" opacity="1.00" d=" M 246.83 372.93 C 251.55 372.33 256.28 371.60 261.06 371.61 C 274.01 371.88 286.97 371.53 299.93 371.71 C 304.91 371.86 309.95 371.26 314.88 372.13 C 320.03 373.74 324.28 379.34 323.07 384.85 C 321.63 387.37 318.94 388.86 317.24 391.21 C 315.16 394.07 312.53 396.44 309.91 398.80 C 308.39 399.59 306.84 400.33 305.29 401.07 C 305.44 399.41 305.59 397.75 305.75 396.10 C 303.77 396.16 301.71 395.92 299.81 396.59 C 299.28 397.99 298.92 399.46 298.53 400.92 C 297.65 400.06 296.76 399.20 295.88 398.36 C 297.68 396.41 299.28 394.27 300.22 391.77 C 301.59 389.24 302.10 386.38 301.47 383.56 C 287.66 382.61 273.82 383.67 260.00 383.28 C 255.97 383.21 252.40 381.00 249.18 378.80 C 247.21 377.52 247.26 374.97 246.83 372.93 Z" />
</g>
<g id="#1888f9ff">
<path fill="#1888f9" opacity="1.00" d=" M 350.25 376.26 C 355.12 374.53 359.70 371.42 365.05 371.57 C 370.69 371.70 376.53 370.82 381.98 372.73 C 386.97 374.48 392.24 376.13 396.27 379.72 C 399.05 382.20 402.12 384.45 404.16 387.63 C 403.03 388.32 401.90 389.02 400.78 389.72 C 399.95 391.85 399.12 393.98 398.34 396.13 C 398.61 398.40 398.56 400.68 398.41 402.95 C 394.29 397.51 390.35 391.21 383.62 388.75 C 377.30 385.70 369.92 384.52 363.12 386.59 C 357.42 388.37 352.07 391.60 348.17 396.16 C 347.35 395.40 346.54 394.64 345.73 393.89 C 346.84 391.94 348.12 390.05 348.84 387.91 C 349.22 386.15 347.38 385.18 346.45 384.01 C 345.87 385.84 345.31 387.68 344.75 389.52 C 342.83 388.18 340.90 386.85 338.96 385.53 C 341.11 380.91 345.82 378.31 350.25 376.26 Z" />
</g>
<g id="#d2fcffff">
</g>
<g id="#71aae1ff">
<path fill="#71aae1" opacity="1.00" d=" M 437.73 380.99 C 437.88 380.84 438.17 380.55 438.32 380.40 C 438.17 380.55 437.88 380.84 437.73 380.99 Z" />
</g>
<g id="#6aa7deff">
<path fill="#6aa7de" opacity="1.00" d=" M 437.01 381.73 C 437.19 381.54 437.55 381.18 437.73 380.99 C 437.55 381.18 437.19 381.54 437.01 381.73 Z" />
</g>
<g id="#69a7daff">
<path fill="#69a7da" opacity="1.00" d=" M 436.25 382.54 C 436.44 382.34 436.82 381.93 437.01 381.73 C 436.82 381.93 436.44 382.34 436.25 382.54 Z" />
</g>
<g id="#4989caff">
<path fill="#4989ca" opacity="1.00" d=" M 453.70 386.93 C 462.91 382.65 474.06 382.27 483.25 386.79 C 488.29 390.27 493.68 394.04 495.92 400.02 C 499.83 406.79 498.90 414.79 499.21 422.28 C 498.10 427.18 495.11 431.35 492.56 435.59 C 490.56 438.96 486.93 440.71 483.61 442.51 C 476.62 446.61 467.99 446.79 460.22 445.37 C 453.53 443.10 446.56 439.53 443.01 433.12 C 441.71 430.75 440.33 428.40 439.43 425.84 C 434.09 411.66 440.49 394.31 453.70 386.93 M 456.34 388.90 C 453.05 390.03 450.31 392.30 447.72 394.55 C 447.69 394.59 447.61 394.66 447.58 394.69 C 447.30 395.11 446.76 395.94 446.49 396.35 L 445.57 396.32 L 444.94 397.20 L 445.26 398.06 C 443.19 399.85 441.69 402.55 441.52 405.31 C 439.91 405.47 439.51 406.29 440.29 407.78 L 440.30 408.70 C 437.78 411.77 438.05 417.14 440.28 420.32 C 440.38 422.60 441.13 424.79 441.80 426.96 L 441.93 426.55 C 445.36 437.32 456.83 444.82 468.03 444.68 C 478.03 445.07 487.88 439.66 493.29 431.28 C 497.59 425.20 498.90 417.29 497.67 410.03 C 495.46 394.67 479.42 382.83 464.06 385.64 C 461.37 386.23 458.02 386.41 456.34 388.90 Z" />
</g>
<g id="#3190d8ff">
<path fill="#3190d8" opacity="1.00" d=" M 547.98 384.98 C 553.39 382.63 559.60 382.97 565.06 384.98 C 571.55 387.73 576.07 393.54 578.53 400.00 C 578.93 410.81 578.29 421.66 578.74 432.48 C 578.80 437.99 578.03 443.53 578.70 449.02 C 579.28 453.85 584.32 457.26 589.04 456.30 L 590.10 455.84 C 590.70 440.23 590.20 424.58 590.32 408.95 C 590.57 405.44 588.42 401.61 590.51 398.39 C 593.31 393.78 595.79 388.36 600.95 385.95 C 609.42 380.75 620.94 383.48 627.65 390.35 C 630.00 393.18 631.69 396.50 633.21 399.85 C 633.52 416.25 633.10 432.67 633.43 449.08 C 634.57 453.19 637.94 458.25 642.81 457.73 C 644.77 457.77 645.29 455.58 645.27 454.02 C 645.57 436.48 645.02 418.92 645.42 401.39 L 645.51 400.26 C 645.73 398.27 645.91 396.28 645.89 394.28 L 646.43 394.16 C 648.19 399.29 647.33 404.73 648.03 410.01 C 648.21 411.33 648.17 412.65 647.93 413.98 C 648.79 417.98 647.07 421.98 647.83 426.01 C 648.91 430.65 647.14 435.32 648.25 439.97 C 648.36 446.99 647.26 453.98 647.68 461.03 C 643.94 460.57 639.81 460.78 636.60 458.48 C 633.89 456.52 631.34 453.64 631.41 450.10 C 631.24 435.40 631.43 420.70 631.36 406.00 C 631.48 394.58 620.45 384.04 608.94 385.65 C 602.25 386.62 595.80 391.27 593.92 397.95 C 591.91 403.77 592.74 410.00 592.60 416.02 C 592.47 430.94 592.74 445.86 592.39 460.77 C 588.82 461.56 585.09 460.02 581.69 459.00 C 577.48 456.26 575.62 450.87 575.65 446.03 C 575.68 432.36 575.64 418.69 575.64 405.02 C 576.76 392.36 561.87 381.79 550.22 386.65 C 543.19 389.16 538.20 396.03 537.39 403.36 C 536.85 402.12 536.29 400.90 535.72 399.69 C 537.06 393.20 541.65 387.27 547.98 384.98 Z" />
</g>
<g id="#1590f8ff">
<path fill="#1590f8" opacity="1.00" d=" M 346.45 384.01 C 347.38 385.18 349.22 386.15 348.84 387.91 C 348.12 390.05 346.84 391.94 345.73 393.89 C 346.54 394.64 347.35 395.40 348.17 396.16 C 346.69 397.98 345.44 399.98 344.33 402.04 C 339.03 410.09 340.00 421.08 344.59 429.24 C 347.52 435.00 352.80 439.07 358.26 442.28 C 355.56 441.94 352.49 442.58 350.15 440.90 C 347.26 438.80 343.86 436.90 342.51 433.40 C 341.11 430.33 338.86 427.81 336.65 425.31 C 336.88 423.06 336.93 420.79 336.31 418.60 C 334.16 421.06 330.45 423.25 330.94 427.00 C 331.02 428.39 331.30 429.80 331.97 431.05 C 333.10 431.50 334.30 431.77 335.48 432.08 C 334.81 434.04 334.18 436.02 333.72 438.05 C 329.84 432.01 327.50 425.15 326.60 418.04 C 326.45 411.54 327.67 405.00 329.73 398.85 C 332.27 394.09 334.47 388.82 338.96 385.53 C 340.90 386.85 342.83 388.18 344.75 389.52 C 345.31 387.68 345.87 385.84 346.45 384.01 Z" />
</g>
<g id="#73b1e0ff">
<path fill="#73b1e0" opacity="1.00" d=" M 434.35 384.55 C 434.44 384.46 434.62 384.27 434.71 384.18 C 434.62 384.27 434.44 384.46 434.35 384.55 Z" />
</g>
<g id="#a4d9f6ff">
</g>
<g id="#d7fdffff">
</g>
<g id="#fdfefdff">
</g>
<g id="#63a5daff">
<path fill="#63a5da" opacity="1.00" d=" M 431.51 387.75 C 431.88 387.27 432.63 386.30 433.00 385.81 C 432.63 386.30 431.88 387.27 431.51 387.75 Z" />
</g>
<g id="#1490f9ff">
<path fill="#1490f9" opacity="1.00" d=" M 400.78 389.72 C 401.90 389.02 403.03 388.32 404.16 387.63 C 407.30 390.10 409.11 393.74 410.69 397.32 C 413.23 403.52 414.76 410.22 414.45 416.96 C 414.57 421.12 412.85 424.97 412.02 428.98 C 411.72 430.51 411.14 431.96 410.30 433.28 C 410.14 431.56 409.93 429.85 409.74 428.15 C 408.22 428.24 406.71 428.33 405.21 428.43 C 404.15 427.61 403.09 426.78 402.04 425.96 C 401.22 427.14 400.39 428.31 399.56 429.49 C 399.12 428.01 398.70 426.52 398.40 425.01 C 399.38 421.41 400.46 417.74 400.27 413.97 C 400.00 410.24 398.66 406.68 398.41 402.95 C 398.56 400.68 398.61 398.40 398.34 396.13 C 399.12 393.98 399.95 391.85 400.78 389.72 Z" />
</g>
<g id="#ade0f8ff">
</g>
<g id="#86bfeeff">
<path fill="#86bfee" opacity="1.00" d=" M 428.71 391.90 C 429.04 391.42 429.69 390.44 430.02 389.96 C 429.69 390.44 429.04 391.42 428.71 391.90 Z" />
</g>
<g id="#0e9bfaff">
<path fill="#0e9bfa" opacity="1.00" d=" M 281.58 410.55 C 287.25 403.77 293.77 397.78 300.22 391.77 C 299.28 394.27 297.68 396.41 295.88 398.36 C 296.76 399.20 297.65 400.06 298.53 400.92 C 298.92 399.46 299.28 397.99 299.81 396.59 C 301.71 395.92 303.77 396.16 305.75 396.10 C 305.59 397.75 305.44 399.41 305.29 401.07 C 306.84 400.33 308.39 399.59 309.91 398.80 C 306.34 403.88 301.34 407.68 297.29 412.35 C 289.95 422.55 279.99 430.45 272.23 440.32 C 272.28 440.95 272.37 442.23 272.41 442.86 C 272.45 443.27 272.52 444.09 272.56 444.49 C 287.36 444.58 302.16 444.48 316.96 444.53 C 319.32 444.50 321.65 445.06 323.86 445.89 C 323.21 445.90 321.92 445.91 321.27 445.92 C 325.03 449.24 329.18 452.60 329.94 457.91 C 325.87 459.82 321.31 459.08 316.98 459.12 C 301.64 459.16 286.31 459.20 270.97 459.11 C 266.16 458.94 261.09 459.48 256.56 457.55 C 253.48 456.33 251.62 453.47 249.87 450.83 C 249.86 448.60 249.30 446.22 250.23 444.10 C 254.27 438.28 259.24 433.18 264.70 428.69 C 269.48 421.87 276.41 417.03 281.58 410.55 Z" />
<path fill="#0e9bfa" opacity="1.00" d=" M 330.94 427.00 C 330.45 423.25 334.16 421.06 336.31 418.60 C 336.93 420.79 336.88 423.06 336.65 425.31 C 338.86 427.81 341.11 430.33 342.51 433.40 C 343.86 436.90 347.26 438.80 350.15 440.90 C 352.49 442.58 355.56 441.94 358.26 442.28 C 364.54 444.55 371.46 445.60 378.02 443.95 C 387.40 441.57 395.29 434.15 398.40 425.01 C 398.70 426.52 399.12 428.01 399.56 429.49 C 400.39 428.31 401.22 427.14 402.04 425.96 C 403.09 426.78 404.15 427.61 405.21 428.43 C 406.71 428.33 408.22 428.24 409.74 428.15 C 409.93 429.85 410.14 431.56 410.30 433.28 C 407.87 437.63 405.86 442.45 401.62 445.41 C 396.91 450.40 391.13 454.27 384.74 456.75 C 378.64 457.72 372.53 459.36 366.30 458.65 C 359.86 458.31 353.87 455.64 348.23 452.72 C 342.97 449.82 339.17 445.10 335.20 440.73 C 334.48 439.96 333.99 439.06 333.72 438.05 C 334.18 436.02 334.81 434.04 335.48 432.08 C 334.30 431.77 333.10 431.50 331.97 431.05 C 331.30 429.80 331.02 428.39 330.94 427.00 Z" />
</g>
<g id="#7fb4e8ff">
<path fill="#7fb4e8" opacity="1.00" d=" M 427.79 393.95 C 428.02 393.44 428.48 392.41 428.71 391.90 C 428.48 392.41 428.02 393.44 427.79 393.95 Z" />
</g>
<g id="#76aedfff">
<path fill="#76aedf" opacity="1.00" d=" M 426.79 395.98 C 427.04 395.47 427.54 394.46 427.79 393.95 C 427.54 394.46 427.04 395.47 426.79 395.98 Z" />
</g>
<g id="#7aace9ff">
<path fill="#7aace9" opacity="1.00" d=" M 447.58 394.69 C 447.61 394.66 447.69 394.59 447.72 394.55 C 447.69 394.59 447.61 394.66 447.58 394.69 Z" />
</g>
<g id="#7eb7e5ff">
<path fill="#7eb7e5" opacity="1.00" d=" M 425.52 397.98 C 425.83 397.48 426.47 396.48 426.79 395.98 C 426.47 396.48 425.83 397.48 425.52 397.98 Z" />
</g>
<g id="#7cb7e5ff">
<path fill="#7cb7e5" opacity="1.00" d=" M 445.57 396.32 L 446.49 396.35 C 446.18 396.78 445.57 397.64 445.26 398.06 L 444.94 397.20 L 445.57 396.32 Z" />
</g>
<g id="#86bcebff">
<path fill="#86bceb" opacity="1.00" d=" M 423.58 404.74 C 423.46 402.91 423.42 400.54 425.48 399.77 C 425.56 401.59 425.45 403.81 423.58 404.74 Z" />
</g>
<g id="#8bccefff">
<path fill="#8bccef" opacity="1.00" d=" M 512.10 400.38 C 513.70 399.56 514.54 402.50 513.31 403.32 C 512.10 402.85 512.06 401.45 512.10 400.38 Z" />
</g>
<g id="#7fbee9ff">
<path fill="#7fbee9" opacity="1.00" d=" M 325.19 422.61 C 323.68 416.48 323.96 409.87 325.85 403.85 C 325.43 410.09 325.60 416.36 325.19 422.61 Z" />
</g>
<g id="#78b5e8ff">
</g>
<g id="#dfffffff">
</g>
<g id="#56a1dcff">
<path fill="#56a1dc" opacity="1.00" d=" M 422.69 413.88 C 422.20 411.90 422.29 409.82 423.34 408.04 C 424.14 409.98 424.47 412.36 422.69 413.88 Z" />
</g>
<g id="#75b2eaff">
</g>
<g id="#0e9afbff">
<path fill="#0e9afb" opacity="1.00" d=" M 524.99 416.89 C 523.75 413.71 525.82 410.92 527.86 408.67 C 528.68 411.18 529.28 413.76 529.80 416.35 C 530.37 419.75 532.31 422.67 533.70 425.77 C 533.55 422.36 533.76 418.94 534.67 415.64 C 535.29 424.07 534.62 432.53 534.88 440.97 C 534.89 446.04 535.31 451.74 532.05 456.01 C 529.56 457.76 526.41 457.65 523.51 457.54 C 523.02 448.83 523.24 440.10 523.44 431.38 C 523.90 426.55 524.86 421.71 524.99 416.89 Z" />
</g>
<g id="#0d9cfaff">
<path fill="#0d9cfa" opacity="1.00" d=" M 427.32 411.77 C 431.66 416.52 430.23 423.79 434.52 428.66 C 434.92 427.44 435.32 426.22 435.73 425.01 C 436.05 425.51 436.70 426.52 437.02 427.02 C 436.29 428.63 434.04 430.12 434.65 432.00 C 437.27 433.16 440.19 433.26 443.01 433.12 C 446.56 439.53 453.53 443.10 460.22 445.37 C 467.99 446.79 476.62 446.61 483.61 442.51 C 486.93 440.71 490.56 438.96 492.56 435.59 C 495.11 431.35 498.10 427.18 499.21 422.28 C 499.81 422.12 501.01 421.80 501.61 421.64 C 501.80 421.05 502.18 419.89 502.36 419.30 C 503.07 420.37 503.77 421.43 504.48 422.51 C 505.61 422.79 506.74 423.07 507.88 423.36 C 508.31 426.34 508.47 429.34 508.33 432.35 C 506.82 437.39 503.45 441.99 499.48 445.45 C 494.59 450.46 488.86 455.17 481.98 457.02 C 475.36 457.92 468.65 459.75 461.96 458.37 C 448.70 456.77 437.25 447.62 430.57 436.37 C 429.51 434.15 427.72 431.95 427.92 429.38 C 428.29 427.44 428.24 425.48 427.68 423.59 C 426.63 419.73 426.89 415.70 427.32 411.77 Z" />
</g>
<g id="#0e9afcff">
<path fill="#0e9afc" opacity="1.00" d=" M 584.27 422.40 C 586.43 419.21 585.90 415.17 587.49 411.78 C 590.15 426.47 588.68 441.47 589.04 456.30 C 584.32 457.26 579.28 453.85 578.70 449.02 C 578.03 443.53 578.80 437.99 578.74 432.48 C 581.12 429.43 582.22 425.65 584.27 422.40 Z" />
</g>
<g id="#78b6eaff">
<path fill="#78b6ea" opacity="1.00" d=" M 422.68 415.58 C 423.84 420.03 424.24 424.63 425.04 429.16 C 423.75 427.87 423.15 426.14 422.78 424.40 C 422.45 421.46 422.51 418.51 422.68 415.58 Z" />
</g>
<g id="#8cc7edff">
<path fill="#8cc7ed" opacity="1.00" d=" M 512.94 426.00 C 512.86 424.89 513.17 423.92 513.87 423.10 C 514.92 424.55 514.61 425.52 512.94 426.00 Z" />
</g>
<g id="#91c8eaff">
<path fill="#91c8ea" opacity="1.00" d=" M 511.82 430.15 C 512.06 428.73 512.51 427.37 512.94 426.00 C 513.77 427.48 514.03 430.96 512.20 431.55 C 512.10 431.20 511.91 430.50 511.82 430.15 Z" />
</g>
<g id="#87c2e9ff">
<path fill="#87c2e9" opacity="1.00" d=" M 425.04 429.16 C 425.78 429.84 426.15 430.70 426.15 431.72 C 424.39 431.56 424.02 430.70 425.04 429.16 Z" />
</g>
<g id="#78b9e3ff">
<path fill="#78b9e3" opacity="1.00" d=" M 510.77 433.74 C 510.79 433.69 510.83 433.61 510.84 433.56 C 510.83 433.61 510.79 433.69 510.77 433.74 Z" />
</g>
<g id="#67addeff">
<path fill="#67adde" opacity="1.00" d=" M 427.00 434.62 C 427.02 434.66 427.05 434.75 427.07 434.80 C 427.05 434.75 427.02 434.66 427.00 434.62 Z" />
</g>
<g id="#75bde3ff">
<path fill="#75bde3" opacity="1.00" d=" M 509.78 435.75 C 509.81 435.71 509.85 435.61 509.88 435.56 C 509.85 435.61 509.81 435.71 509.78 435.75 Z" />
</g>
<g id="#76bde7ff">
<path fill="#76bde7" opacity="1.00" d=" M 427.72 436.16 C 428.05 436.57 428.70 437.39 429.03 437.80 L 428.11 437.88 L 427.44 437.04 L 427.72 436.16 Z" />
</g>
<g id="#7ac3e4ff">
<path fill="#7ac3e4" opacity="1.00" d=" M 508.75 437.79 C 508.77 437.74 508.82 437.65 508.84 437.60 C 508.82 437.65 508.77 437.74 508.75 437.79 Z" />
</g>
<g id="#74c3eaff">
<path fill="#74c3ea" opacity="1.00" d=" M 433.42 444.85 C 433.54 444.98 433.78 445.25 433.90 445.39 C 433.78 445.25 433.54 444.98 433.42 444.85 Z" />
</g>
<g id="#6bb4ddff">
<path fill="#6bb4dd" opacity="1.00" d=" M 503.39 445.27 C 503.47 445.18 503.62 445.01 503.70 444.92 C 503.62 445.01 503.47 445.18 503.39 445.27 Z" />
</g>
<g id="#6ebee3ff">
<path fill="#6ebee3" opacity="1.00" d=" M 433.90 445.39 C 434.08 445.58 434.44 445.96 434.61 446.15 C 434.44 445.96 434.08 445.58 433.90 445.39 Z" />
</g>
<g id="#68b5e1ff">
<path fill="#68b5e1" opacity="1.00" d=" M 503.04 445.70 C 503.13 445.59 503.30 445.38 503.39 445.27 C 503.30 445.38 503.13 445.59 503.04 445.70 Z" />
</g>
<g id="#3898cdff">
<path fill="#3898cd" opacity="1.00" d=" M 321.27 445.92 C 321.92 445.91 323.21 445.90 323.86 445.89 C 329.69 448.42 331.97 455.16 331.84 461.10 C 308.90 461.73 285.94 461.16 262.99 461.41 C 257.66 461.79 252.03 459.20 249.29 454.55 C 249.44 453.62 249.73 451.76 249.87 450.83 C 251.62 453.47 253.48 456.33 256.56 457.55 C 261.09 459.48 266.16 458.94 270.97 459.11 C 286.31 459.20 301.64 459.16 316.98 459.12 C 321.31 459.08 325.87 459.82 329.94 457.91 C 329.18 452.60 325.03 449.24 321.27 445.92 Z" />
</g>
<g id="#6bbae3ff">
<path fill="#6bbae3" opacity="1.00" d=" M 434.61 446.15 C 434.74 446.28 434.98 446.54 435.10 446.67 C 434.98 446.54 434.74 446.28 434.61 446.15 Z" />
</g>
<g id="#61b1e4ff">
<path fill="#61b1e4" opacity="1.00" d=" M 500.19 448.52 C 500.32 448.41 500.59 448.20 500.72 448.09 C 500.59 448.20 500.32 448.41 500.19 448.52 Z" />
</g>
<g id="#67b5e3ff">
<path fill="#67b5e3" opacity="1.00" d=" M 499.27 449.36 C 499.50 449.15 499.96 448.73 500.19 448.52 C 499.96 448.73 499.50 449.15 499.27 449.36 Z" />
</g>
<g id="#6cb3e1ff">
<path fill="#6cb3e1" opacity="1.00" d=" M 438.16 449.67 C 438.19 449.70 438.27 449.77 438.30 449.81 C 438.27 449.77 438.19 449.70 438.16 449.67 Z" />
</g>
<g id="#61b2e1ff">
<path fill="#61b2e1" opacity="1.00" d=" M 498.31 450.34 C 498.55 450.10 499.03 449.61 499.27 449.36 C 499.03 449.61 498.55 450.10 498.31 450.34 Z" />
</g>
<g id="#65b2dcff">
<path fill="#65b2dc" opacity="1.00" d=" M 497.25 451.19 C 497.52 450.98 498.05 450.55 498.31 450.34 C 498.05 450.55 497.52 450.98 497.25 451.19 Z" />
</g>
<g id="#80c4e9ff">
<path fill="#80c4e9" opacity="1.00" d=" M 440.32 451.56 C 440.36 451.59 440.44 451.66 440.48 451.70 C 440.44 451.66 440.36 451.59 440.32 451.56 Z" />
</g>
<g id="#76badfff">
<path fill="#76badf" opacity="1.00" d=" M 496.24 451.80 C 496.50 451.65 497.00 451.34 497.25 451.19 C 497.00 451.34 496.50 451.65 496.24 451.80 Z" />
</g>
<g id="#6ab3deff">
<path fill="#6ab3de" opacity="1.00" d=" M 442.13 452.95 C 442.18 452.99 442.27 453.05 442.32 453.09 C 442.27 453.05 442.18 452.99 442.13 452.95 Z" />
</g>
<g id="#7dbee6ff">
<path fill="#7dbee6" opacity="1.00" d=" M 493.94 453.39 C 494.52 452.99 495.67 452.20 496.24 451.80 C 495.91 452.23 495.23 453.08 494.89 453.50 L 493.94 453.39 Z" />
</g>
<g id="#74badeff">
<path fill="#74bade" opacity="1.00" d=" M 493.24 453.77 C 493.41 453.68 493.77 453.49 493.94 453.39 C 493.77 453.49 493.41 453.68 493.24 453.77 Z" />
</g>
<g id="#69b6e0ff">
<path fill="#69b6e0" opacity="1.00" d=" M 445.29 454.98 C 445.34 455.01 445.45 455.08 445.50 455.11 C 445.45 455.08 445.34 455.01 445.29 454.98 Z" />
</g>
<g id="#7bc3e3ff">
</g>
<g id="#80c5ecff">
</g>
<g id="#6cbfe5ff">
</g>
<g id="#ade4f9ff">
<path fill="#ade4f9" opacity="1.00" d=" M 454.47 459.27 C 454.52 459.29 454.63 459.32 454.68 459.34 C 454.63 459.32 454.52 459.29 454.47 459.27 Z" />
</g>
<g id="#6bb7e0ff">
</g>
</svg>
